<?xml version="1.0" standalone="no"?>
<!DOCTYPE svg PUBLIC "-//W3C//DTD SVG 1.1//EN" "http://www.w3.org/Graphics/SVG/1.1/DTD/svg11.dtd" >
<svg>
<metadata>
Created by FontForge 20120702 at Tue Aug 29 06:42:12 2023

Copyright c 1992 Corel Corporation. All Rights Reserved.
</metadata>
<defs>
<font id="SwitzerlandCondensedBold" horiz-adv-x="1024" >
  <font-face 
    font-family="Switzerland Condensed"
    font-weight="700"
    font-stretch="normal"
    units-per-em="2048"
    panose-1="2 11 8 0 0 0 0 0 0 0"
    ascent="1638"
    descent="-410"
    x-height="1155"
    cap-height="1540"
    bbox="-180 -469 2241 1993"
    underline-thickness="50"
    underline-position="-75"
    unicode-range="U+0020-F002"
  />
<missing-glyph horiz-adv-x="1536" 
d="M256 0v1280h1024v-1280h-1024zM1248 32v1216h-960v-1216h960z" />
    <glyph glyph-name=".notdef" horiz-adv-x="1536" 
d="M256 0v1280h1024v-1280h-1024zM1248 32v1216h-960v-1216h960z" />
    <glyph glyph-name=".null" horiz-adv-x="0" 
 />
    <glyph glyph-name="nonmarkingreturn" horiz-adv-x="0" 
 />
    <glyph glyph-name="brokenbar" unicode="&#xa6;" horiz-adv-x="340" 
d="M193 1532h131v-1532h-131v1532z" />
    <glyph glyph-name="twosuperior" unicode="&#xb2;" horiz-adv-x="616" 
d="M41 1233q-2 14 -2 43q0 163 81 213.5t199 50.5q109 0 182.5 -64.5t73.5 -170.5q0 -72 -26.5 -130.5t-66.5 -103.5t-109 -110q-73 -69 -109 -116t-41 -97h348v-132h-542q3 90 13 143t35 100t76.5 103.5t143.5 145.5q52 48 79 88t27 92q0 57 -21 87t-58 30q-64 0 -88 -24.5
t-27 -108.5q4 -12 4 -39h-172z" />
    <glyph glyph-name="threesuperior" unicode="&#xb3;" horiz-adv-x="616" 
d="M41 1268q0 144 66 208t186 64q119 0 196.5 -63.5t77.5 -180.5q0 -71 -32.5 -124t-98.5 -64q80 -6 116 -67t36 -152q0 -43 -10 -89t-27.5 -83t-38.5 -58q-32 -29 -90 -46t-125 -17q-87 0 -147 25.5t-93.5 86t-33.5 162.5q0 29 2 45h176q0 -113 26 -150.5t80 -37.5
q55 0 75.5 38t20.5 107v48q0 59 -34.5 87.5t-153.5 28.5v140q106 0 139 27.5t33 84.5q0 52 -21.5 84.5t-72.5 32.5q-43 0 -62 -22t-22 -78q4 -13 4 -37h-172z" />
    <glyph glyph-name="onesuperior" unicode="&#xb9;" horiz-adv-x="616" 
d="M328 1251h-224v125q227 5 273 164h135v-924h-184v635z" />
    <glyph glyph-name="onequarter" unicode="&#xbc;" horiz-adv-x="1536" 
d="M1221 188l-324 -4v135l303 588h209v-588h86v-135h-86v-184h-188v188zM1221 319v390l-185 -390h185zM1141 1511h151l-872 -1511h-152zM268 1255h-227v121q100 1 158.5 28.5t80 60.5t35.5 75h138v-928h-185v643z" />
    <glyph glyph-name="onehalf" unicode="&#xbd;" horiz-adv-x="1536" 
d="M965 616q0 15 -0.5 23.5t-1.5 17.5q0 164 84.5 217.5t195.5 53.5q53 0 101.5 -16.5t86.5 -49.5t59 -77.5t21 -96.5q0 -56 -16 -101.5t-43.5 -84t-73 -83t-73.5 -71.5q-78 -74 -114.5 -119t-37.5 -94h346v-135h-547q5 92 17 145.5t39.5 100.5t80 105t132.5 136
q50 52 78 98t28 99q0 44 -23.5 76.5t-66.5 32.5q-56 0 -76 -38.5t-20 -138.5h-176zM223 0l869 1511h151l-866 -1511h-154zM248 1255h-223v121q143 3 195.5 47t78.5 113h137v-920h-188v639z" />
    <glyph glyph-name="threequarters" unicode="&#xbe;" horiz-adv-x="1536" 
d="M1247 188h-327v136l305 587h211v-587h84v-136h-84v-188h-189v188zM1247 324v376l-186 -376h186zM324 0l876 1511h156l-877 -1511h-155zM37 1268q0 272 252 272q127 0 203 -51q32 -20 51.5 -71t19.5 -118q0 -74 -31.5 -129t-99.5 -63q81 -3 120.5 -66.5t39.5 -156.5
q0 -40 -10 -84.5t-28 -80.5t-38 -56q-33 -31 -89.5 -49.5t-127.5 -18.5q-136 3 -206 63.5t-70 212.5q0 31 2 48h176q0 -31 -4 -52q5 -141 114 -141q46 3 69 36.5t23 80.5q0 55 -4 80q0 63 -33.5 89.5t-150.5 26.5v136q115 0 143.5 33t28.5 112q0 84 -94 84q-38 0 -59.5 -23
t-24.5 -77q4 -13 4 -37h-176z" />
    <glyph glyph-name="Gbreve" unicode="&#x11e;" horiz-adv-x="1251" 
d="M1108 1057h-289q0 156 -44.5 219t-158.5 63q-125 0 -166.5 -87t-41.5 -269v-403q0 -126 13 -206.5t59 -128.5t136 -48q211 0 211 383v20h-198v223h475v-823h-211v180q-37 -105 -119.5 -163t-202.5 -58q-30 0 -96 8q-104 21 -170 62.5t-108.5 119t-63 204.5t-20.5 306v164
q2 248 29.5 402.5t134 253t327.5 98.5q175 0 280 -50.5t152.5 -130.5t59.5 -160.5t12 -178.5zM408 1954q3 -67 56.5 -105.5t143.5 -38.5q104 0 156.5 33t64.5 111h136q-20 -150 -113 -223t-236 -76q-82 0 -160.5 28.5t-131 95.5t-52.5 175h136z" />
    <glyph glyph-name="Idotaccent" unicode="&#x130;" horiz-adv-x="567" 
d="M139 1540h289v-1540h-289v1540zM145 1937h265v-235h-265v235z" />
    <glyph glyph-name="Scedilla" unicode="&#x15e;" horiz-adv-x="1141" 
d="M559 -33q-203 3 -314 114t-114 376q0 17 -13.5 44t-13.5 44h287q0 -17 -2 -43t-4 -49q0 -128 52 -192.5t134 -67.5q53 6 84 16q34 8 61 56.5t27 107.5q0 132 -139 227q-111 72 -189.5 124t-152 121.5t-116 154t-42.5 196.5q19 359 408 377q154 0 263.5 -45.5t166.5 -146
t57 -261.5v-49h-272q0 150 -44 211t-128 61q-64 0 -110.5 -41t-49.5 -106q3 -48 30.5 -95.5t74.5 -80.5q29 -19 155.5 -100.5t197.5 -139t123 -131.5t60 -157q4 -58 4 -84q0 -135 -50.5 -229.5t-135.5 -145t-184 -62.5l-60 -96q34 6 64 6q58 0 100.5 -20t63 -54.5
t20.5 -74.5q0 -50 -28 -95.5t-85.5 -73.5t-138.5 -28q-105 0 -231 53l35 84q81 -32 153 -32q54 0 84.5 24t30.5 55q0 30 -23.5 49.5t-68.5 22.5q-66 -12 -84 -18l-39 43z" />
    <glyph glyph-name="gbreve" unicode="&#x11f;" 
d="M889 1155v-1114q0 -90 -15 -159.5t-51 -124.5t-96 -89q-41 -23 -116 -39t-154 -16q-138 0 -234 60.5t-102 195.5h266q0 -66 129 -66q117 7 117 168v158q-29 -77 -97 -117.5t-151 -40.5q-81 0 -149 41q-127 79 -127 373v332q0 181 30 281.5t83.5 139.5t137.5 46h43
q79 0 134.5 -35t83.5 -121v127h268zM377 727v-346q0 -115 37.5 -162t81.5 -47q62 6 93.5 53.5t31.5 151.5v391q0 107 -34 160t-91 53q-50 0 -75 -20t-34.5 -72t-9.5 -162zM328 1581q3 -66 56.5 -104.5t143.5 -38.5q104 0 157 32.5t65 110.5h135q-20 -150 -113 -223t-235 -76
q-83 0 -160.5 28.5t-130.5 96t-53 174.5h135z" />
    <glyph glyph-name="dotlessi" unicode="&#x131;" horiz-adv-x="567" 
d="M152 1155h264v-1155h-264v1155z" />
    <glyph glyph-name="scedilla" unicode="&#x15f;" horiz-adv-x="907" 
d="M477 -29l-59 -96q33 6 63 6q89 0 137 -42.5t48 -106.5q0 -50 -28 -95.5t-85.5 -73.5t-138.5 -28q-106 0 -232 53l35 84q83 -32 154 -32q53 0 83.5 24t30.5 55t-23.5 50t-68.5 22q-17 -2 -28.5 -4t-25 -5t-30.5 -9l-39 43l99 153q-87 11 -158 53t-112.5 120t-41.5 186
q0 34 2 53h269q-4 -42 -4 -57q0 -156 120 -164q115 14 115 112q0 72 -43 109q-16 14 -130 87.5t-194 146.5t-104 149q-14 42 -25 135q3 104 59.5 167.5t144.5 90.5t190 27q184 0 281.5 -89t97.5 -290h-273q0 99 -29.5 137.5t-89.5 38.5q-47 0 -80 -23t-36 -69q7 -60 41 -84
q55 -47 160 -115.5t162.5 -113t98.5 -111t41 -158.5q0 -51 -12 -110q-13 -67 -54 -116.5t-113.5 -77.5t-174.5 -32z" />
    <glyph glyph-name="space" unicode=" " horiz-adv-x="512" 
 />
    <glyph glyph-name="exclam" unicode="!" horiz-adv-x="680" 
d="M209 268h262v-268h-262v268zM209 1536h262v-637l-43 -504h-168l-51 504v637z" />
    <glyph glyph-name="quotedbl" unicode="&#x22;" horiz-adv-x="680" 
d="M33 1516h243v-555h-243v555zM408 1516h243v-555h-243v555z" />
    <glyph glyph-name="numbersign" unicode="#" 
d="M537 1511l-58 -444h154l51 444h176l-51 -444h152v-203h-181l-20 -184h151v-205h-176l-59 -475h-172l55 475h-147l-60 -475h-172l56 475h-173v205h201l25 184h-172v203h190l58 444h172zM461 864l-25 -184h144l28 184h-147z" />
    <glyph glyph-name="dollar" unicode="$" 
d="M440 1516v133h140v-133q171 -24 256 -105q51 -54 68 -113t20 -194h-240q0 66 -10.5 106.5t-34.5 63t-68 39.5v-410q204 -103 292.5 -224.5t88.5 -275.5v-63q-12 -114 -55 -190t-122 -120.5t-195 -62.5v-219h-140v215q-79 9 -138.5 30t-113 69.5t-86 134t-32.5 209.5
q1 12 2 23v28h243q0 -139 26.5 -202t107.5 -79v467q-121 73 -194.5 134.5t-113.5 137t-49 189.5q0 182 93.5 290t254.5 122zM449 1313q-58 -11 -83.5 -54t-25.5 -100q0 -123 109 -203v357zM571 588v-412q36 9 64.5 34t44.5 63t16 83q0 66 -32 127.5t-93 104.5z" />
    <glyph glyph-name="percent" unicode="%" horiz-adv-x="1704" 
d="M1331 748q92 0 154.5 -20.5t98.5 -63t52.5 -113t16.5 -174.5q0 -117 -18 -194t-88 -130t-208 -53q-136 0 -205.5 45t-91.5 122t-22 193q0 136 22.5 219t90.5 126t198 43zM1335 600q-71 0 -94 -45t-29 -135q5 -22 6 -82q1 -61 7.5 -100t33.5 -65t84 -26q67 4 88 49.5
t21 180.5q0 140 -22 181.5t-95 41.5zM1116 1540h144l-685 -1573h-147zM381 1507q119 0 188 -35t98 -115t29 -220q0 -118 -17.5 -194.5t-86 -129.5t-205.5 -53q-138 0 -209 45t-93 121.5t-22 193.5q0 136 23 218.5t92 125.5t203 43zM381 1360q-48 0 -72.5 -18.5t-34.5 -52.5
t-11 -76q-2 -43 -3 -85q0 -89 11.5 -135.5t38.5 -66t77 -19.5q46 1 70 21t33.5 67t9.5 142q0 93 -10 140.5t-35 65t-74 17.5z" />
    <glyph glyph-name="ampersand" unicode="&#x26;" horiz-adv-x="1368" 
d="M424 907q-118 165 -125 340q2 73 25.5 132.5t66.5 102.5t105 67t141 24q105 0 183.5 -43.5t117.5 -118.5t39 -164q0 -51 -15 -105.5t-43 -101t-74 -91t-102 -77.5l197 -340q43 182 43 283h229q0 -130 -37 -274.5t-100 -237.5l185 -311h-308l-55 104q-133 -133 -338 -133
q-87 0 -163.5 29t-127.5 80q-63 63 -100.5 156t-38.5 192q2 93 33 182.5t97.5 168t164.5 136.5zM629 1065q57 39 85.5 85.5t28.5 92.5t-24.5 84t-67.5 41q-51 0 -77 -27.5t-29 -72.5q4 -8 4 -25q3 -26 13.5 -51.5t30 -61t36.5 -65.5zM541 709q-139 -90 -146 -244
q7 -106 58.5 -186t150.5 -86q98 6 184 88z" />
    <glyph glyph-name="quotesingle" unicode="'" horiz-adv-x="567" 
d="M164 1536h248v-264q0 -260 -248 -289v92q41 8 68 23.5t46 58.5t19 115h-133v264z" />
    <glyph glyph-name="parenleft" unicode="(" horiz-adv-x="680" 
d="M571 1577q-89 -164 -141.5 -399t-52.5 -615q0 -180 14 -318t39.5 -244.5t55 -185.5t89.5 -223h-167q-87 148 -147 275t-92 234t-45 214.5t-15 251.5v47q0 281 72.5 516t226.5 447h163z" />
    <glyph glyph-name="parenright" unicode=")" horiz-adv-x="680" 
d="M109 1577h167q80 -130 134 -244t91 -232.5t55.5 -248.5t18.5 -289q-1 -155 -20.5 -292t-56 -250.5t-90.5 -216.5t-132 -212h-167q98 178 144.5 411t49.5 556q0 223 -17 389t-59 314.5t-118 314.5z" />
    <glyph glyph-name="asterisk" unicode="*" 
d="M592 1511v-227l217 76l55 -160l-221 -63l141 -193l-137 -96l-127 184l-135 -188l-137 96l133 184l-221 72l53 156l215 -68v227h164z" />
    <glyph glyph-name="plus" unicode="+" 
d="M399 625v383h226v-383h348v-230h-348v-395h-226v395h-348v230h348z" />
    <glyph glyph-name="comma" unicode="," horiz-adv-x="680" 
d="M209 272h266v-272q0 -122 -64.5 -201.5t-201.5 -95.5v92q26 0 60 19.5t58.5 65.5t24.5 120h-143v272z" />
    <glyph glyph-name="hyphen" unicode="-" horiz-adv-x="680" 
d="M96 760h492v-236h-492v236z" />
    <glyph glyph-name="period" unicode="." horiz-adv-x="680" 
d="M209 272h270v-272h-270v272z" />
    <glyph glyph-name="slash" unicode="/" horiz-adv-x="567" 
d="M461 1536h180l-485 -1729h-181z" />
    <glyph glyph-name="zero" unicode="0" 
d="M100 1128q0 121 39 214t131.5 147.5t241.5 54.5q146 0 239 -52.5t135 -145.5t42 -218v-733q0 -428 -416 -428q-127 0 -219 41t-142.5 137.5t-50.5 249.5v733zM385 1128v-733q0 -103 30.5 -152.5t96.5 -49.5q129 0 129 202v733q0 95 -30 144t-99 49q-127 0 -127 -193z" />
    <glyph glyph-name="one" unicode="1" 
d="M436 1065h-344v207q353 0 420 264h213v-1536h-289v1065z" />
    <glyph glyph-name="two" unicode="2" 
d="M84 1024q-2 20 -2 59q0 197 66.5 298t159.5 131t204 32q112 0 207.5 -51.5t152 -142.5t56.5 -201q0 -115 -43.5 -211t-94.5 -156t-186 -202q-85 -87 -126.5 -135.5t-72.5 -106t-32 -115.5h534v-223h-844q7 156 23 244t57 164.5t114 164t218 242.5q52 56 87 102t57 103
t22 117q0 84 -32 132t-89 48q-93 0 -133 -47t-43 -187q4 -18 4 -59h-264z" />
    <glyph glyph-name="three" unicode="3" 
d="M80 1087q-2 23 -2 64q0 134 51.5 221.5t140.5 128.5t201 43q91 0 174 -24t135 -68q53 -37 85 -124.5t32 -190.5q0 -115 -49 -200.5t-148 -109.5q116 -16 172 -122t56 -256q0 -109 -31 -211t-82 -154q-49 -51 -143 -84t-197 -33q-205 3 -313.5 109t-108.5 362q0 45 2 70
h273q0 -47 -4 -76q3 -134 47 -186.5t121 -52.5q149 0 149 247q0 47 -4 72q0 67 -13.5 107.5t-64.5 66t-153 25.5q-37 0 -58 -2v227q112 0 171 24t78 66.5t19 110.5q0 78 -35.5 131t-111.5 53q-61 -3 -93.5 -43.5t-35.5 -132.5q4 -21 4 -58h-264z" />
    <glyph glyph-name="four" unicode="4" 
d="M545 311h-498v226l465 974h319v-974h134v-226h-134v-311h-286v311zM545 537v626l-285 -626h285z" />
    <glyph glyph-name="five" unicode="5" 
d="M92 709l37 802h739v-223h-516l-20 -327q78 83 221 83q61 0 135 -16q83 -25 136.5 -84.5t80 -146.5t31.5 -193q2 -33 2 -96q0 -162 -29.5 -267t-86 -164.5t-140.5 -84.5t-195 -25q-219 3 -315 117.5t-96 349.5v49h268v-45q0 -89 16.5 -143t49 -76t82.5 -22q62 0 96 26
t48.5 94t14.5 199q0 172 -35 236t-112 67q-131 0 -160 -110h-252z" />
    <glyph glyph-name="six" unicode="6" 
d="M373 932q32 52 94 78t133 26q97 0 164.5 -43.5t106 -116t54 -156.5t15.5 -179q0 -19 -2 -62t-2 -67q-8 -114 -36.5 -197t-79 -137.5t-128 -82.5t-180.5 -28q-201 0 -312.5 125.5t-111.5 368.5v522q0 222 53.5 344t152.5 169.5t251 47.5q102 0 184.5 -35t132 -112.5
t49.5 -200.5h-268q0 121 -106 121q-57 0 -91.5 -27t-49.5 -71t-18.5 -77.5t-8.5 -117.5q4 -29 4 -92zM373 629v-248q0 -66 30.5 -127t104.5 -61q73 0 108 39t35 128v281q0 79 -39 124.5t-96 45.5q-58 0 -100.5 -49t-42.5 -133z" />
    <glyph glyph-name="seven" unicode="7" 
d="M680 1288h-617v223h869v-206q-46 -71 -102.5 -196t-116.5 -304.5t-103.5 -385t-56.5 -419.5h-297q16 210 85 463t162 477.5t177 347.5z" />
    <glyph glyph-name="eight" unicode="8" 
d="M709 827q130 -28 181 -119.5t54 -283.5q0 -204 -99 -328.5t-329 -124.5q-116 2 -195.5 26t-132.5 79.5t-78.5 148t-25.5 228.5q0 143 47.5 238.5t167.5 139.5q-67 34 -105 78.5t-55 107t-18 142.5q0 111 39 196t127 136.5t229 52.5q204 0 294 -94t93 -283
q0 -157 -40.5 -224.5t-153.5 -115.5zM512 1321q-65 -3 -96 -50.5t-31 -146.5q0 -196 131 -196q125 0 125 200q0 99 -31.5 146t-97.5 47zM373 504v-123q0 -93 32 -137t107 -47q77 0 110 43t33 137v127q0 118 -37 167.5t-106 49.5q-74 0 -106.5 -43.5t-32.5 -173.5z" />
    <glyph glyph-name="nine" unicode="9" 
d="M659 588q-64 -105 -227 -113q-48 3 -91.5 13.5t-59.5 19.5q-96 47 -146.5 160.5t-50.5 322.5q6 191 50 313.5t131.5 180.5t226.5 59q152 0 248 -48t148 -174.5t52 -352.5v-402q0 -211 -42 -342t-134.5 -194t-243.5 -64q-202 0 -302.5 90t-100.5 258h268q0 -56 34 -89
t89 -38q99 12 125 88.5t26 210.5v101zM373 1137v-244q0 -89 40.5 -141.5t98.5 -55.5q59 3 99 54t40 143v244q0 88 -40 136t-99 48q-58 0 -98.5 -50t-40.5 -134z" />
    <glyph glyph-name="colon" unicode=":" horiz-adv-x="567" 
d="M143 1137h273v-273h-273v273zM143 268h273v-272h-273v272z" />
    <glyph glyph-name="semicolon" unicode=";" horiz-adv-x="567" 
d="M152 1141h268v-273h-268v273zM152 272h268v-272q0 -82 -31.5 -146t-93 -102.5t-148.5 -48.5v88q66 10 106 60t40 149h-141v272z" />
    <glyph glyph-name="less" unicode="&#x3c;" 
d="M88 612l852 467v-227l-608 -340l608 -332v-227l-852 459v200z" />
    <glyph glyph-name="equal" unicode="=" 
d="M47 827h922v-223h-922v223zM47 201v231h922v-231h-922z" />
    <glyph glyph-name="greater" unicode="&#x3e;" 
d="M696 512l-608 340v227l852 -463v-204l-852 -459v227z" />
    <glyph glyph-name="question" unicode="?" 
d="M299 264h260v-264h-260v264zM303 412q0 95 11 167t38 131t76 117q70 85 105.5 133.5t61.5 113t26 134.5q0 156 -121 156q-82 -3 -108.5 -51t-26.5 -180h-256q-3 18 -3 51q0 106 29 180.5t83.5 121.5t132 69t173.5 22q110 -3 197.5 -50t130.5 -126q47 -86 47 -221
q0 -137 -55 -228q-52 -83 -109.5 -147.5t-101 -114.5t-64 -112t-20.5 -166h-246z" />
    <glyph glyph-name="at" unicode="@" horiz-adv-x="1704" 
d="M1339 303h197q-62 -80 -139.5 -151.5t-208 -130t-299.5 -58.5q-175 1 -324.5 66.5t-259 182t-169.5 267.5t-60 318q3 145 60 283.5t161.5 248.5t253 175.5t326.5 68.5q184 0 326 -59t237.5 -157t143.5 -213t48 -224q0 -145 -68 -281.5t-187 -226.5t-265 -105
q-101 0 -108 109q4 12 4 33q-93 -122 -269 -130q-84 0 -159.5 42.5t-123 125t-48.5 197.5q2 21 5.5 56l6.5 65q24 124 88.5 210t150.5 127.5t177 41.5q58 0 109.5 -15t93 -44t65.5 -68l20 110h203l-106 -604q-4 -24 -4 -31q0 -37 26 -40q28 1 70.5 37t79.5 89.5t51 102.5
q24 88 24 178q0 115 -40.5 210t-114.5 164.5t-172.5 107t-212.5 38.5q-140 0 -258.5 -36.5t-206 -105.5t-144.5 -171.5t-75 -233.5q-8 -72 -8 -108q0 -128 40.5 -234t113.5 -187.5t160 -132t185 -75.5q97 -17 164 -22q248 5 440 190zM885 991q-78 0 -134 -40.5t-86 -106
t-32 -135.5q3 -90 47.5 -147.5t124.5 -57.5q103 3 165 92t62 201q0 85 -38 139.5t-109 54.5z" />
    <glyph glyph-name="A" unicode="A" horiz-adv-x="1141" 
d="M385 1540h391l344 -1540h-309l-72 387h-336l-79 -387h-304zM692 616l-92 517l-25 235h-4l-22 -235l-105 -517h248z" />
    <glyph glyph-name="B" unicode="B" horiz-adv-x="1141" 
d="M131 1540h498q363 0 370 -364q0 -158 -47 -237t-143 -116q116 -16 172 -105.5t59 -256.5q0 -129 -39 -233t-123.5 -166t-213.5 -62h-533v1540zM420 1313v-398h100q66 0 107.5 16.5t63.5 62.5t22 130q-1 84 -22 125t-58 52.5t-113 11.5h-100zM567 692h-147v-469h155
q65 0 101 32t50.5 86.5t16.5 119.5q0 119 -43.5 175t-132.5 56z" />
    <glyph glyph-name="C" unicode="C" horiz-adv-x="1141" 
d="M756 1061q-3 141 -37.5 208.5t-106.5 73.5q-204 0 -204 -282v-529q0 -118 20.5 -192t61.5 -108.5t102 -34.5q68 0 104.5 39t50 113.5t13.5 199.5h289q-7 -143 -13.5 -205t-45.5 -158t-130 -159.5t-244 -63.5q-144 0 -240 35.5t-153.5 110.5t-83.5 198.5t-26 300.5v260
q0 259 44.5 412t148 222t282.5 71q254 0 353 -132.5t99 -379.5h-284z" />
    <glyph glyph-name="D" unicode="D" horiz-adv-x="1251" 
d="M147 1540h553q112 0 192 -36t133 -114.5t79 -203.5t26 -307q0 -80 -2 -123q-9 -197 -20.5 -306t-51.5 -215.5t-124.5 -170.5t-226.5 -64h-558v1540zM436 1313v-1090h152q114 0 166 63.5t64.5 172.5t12.5 329q-2 194 -16.5 305t-56 165.5t-121.5 54.5h-201z" />
    <glyph glyph-name="E" unicode="E" 
d="M131 1540h809v-227h-520v-389h477v-224h-477v-477h520v-223h-809v1540z" />
    <glyph glyph-name="F" unicode="F" 
d="M152 1536h813v-223h-529v-393h496v-224h-496v-696h-284v1536z" />
    <glyph glyph-name="G" unicode="G" horiz-adv-x="1251" 
d="M1108 1057h-289q0 156 -44.5 219t-158.5 63q-125 0 -166.5 -87t-41.5 -269v-403q0 -126 13 -206.5t59 -128.5t136 -48q211 0 211 383v20h-198v223h475v-823h-211v180q-37 -105 -119.5 -163t-202.5 -58q-30 0 -96 8q-104 21 -170 62.5t-108.5 119t-63 204.5t-20.5 306v164
q2 248 29.5 402.5t134 253t327.5 98.5q175 0 280 -50.5t152.5 -130.5t59.5 -160.5t12 -178.5z" />
    <glyph glyph-name="H" unicode="H" horiz-adv-x="1251" 
d="M139 1540h289v-612h399v612h289v-1540h-289v705h-399v-705h-289v1540z" />
    <glyph glyph-name="I" unicode="I" horiz-adv-x="567" 
d="M139 1540h289v-1540h-289v1540z" />
    <glyph glyph-name="J" unicode="J" horiz-adv-x="907" 
d="M500 1540h288v-1204q0 -196 -94.5 -284.5t-308.5 -88.5q-202 0 -281 96.5t-84 251.5l-8 176h291v-147q0 -89 21.5 -116t74.5 -27q46 0 68 22.5t27.5 59t5.5 108.5v1153z" />
    <glyph glyph-name="K" unicode="K" horiz-adv-x="1141" 
d="M139 1540h285v-684h8q46 112 99.5 217t121.5 229.5t127 237.5h324l-379 -663l395 -877h-323l-269 608l-104 -168v-440h-285v1540z" />
    <glyph glyph-name="L" unicode="L" 
d="M139 1540h285v-1317h537v-223h-822v1540z" />
    <glyph glyph-name="M" unicode="M" horiz-adv-x="1591" 
d="M135 1540h461l172 -809l37 -270l26 270l173 809h456v-1540h-289v872l25 529h-4l-307 -1401h-172l-310 1401h-4l25 -578v-823h-289v1540z" />
    <glyph glyph-name="N" unicode="N" horiz-adv-x="1251" 
d="M139 1540h301l291 -747l141 -449q-9 123 -18.5 248t-17 245.5t-10.5 210.5t-3 148v344h289v-1540h-297l-307 756l-127 411q7 -96 13 -186t14 -215t12 -217t4 -158v-391h-285v1540z" />
    <glyph glyph-name="O" unicode="O" horiz-adv-x="1251" 
d="M1133 629q-2 -160 -16 -268t-63.5 -201t-150.5 -147t-270 -54q-177 0 -282.5 56.5t-152.5 149t-57.5 184.5t-15.5 251v33v194q1 0 1 3q0 7 -5 30q6 161 27.5 318.5t82.5 240.5q64 79 132 117t127.5 46.5t142.5 8.5q221 0 332 -109t139.5 -259t28.5 -346v-248zM420 1049
v-557q0 -295 213 -295q90 0 146.5 67.5t56.5 227.5v532q0 55 -12.5 125t-58 131.5t-132.5 62.5q-107 0 -160 -76t-53 -218z" />
    <glyph glyph-name="P" unicode="P" horiz-adv-x="1141" 
d="M139 1540h586q122 0 202.5 -61t118 -159t37.5 -212q0 -154 -50.5 -258t-150.5 -155.5t-245 -51.5h-213v-643h-285v1540zM424 1313v-445h172q192 0 192 265q0 86 -35 133t-141 47h-188z" />
    <glyph glyph-name="Q" unicode="Q" horiz-adv-x="1251" 
d="M600 1577q173 0 276 -43.5t155 -128t73 -207.5t29 -313v-176q0 -119 -6.5 -220.5t-25 -196t-52.5 -149.5l155 -151l-147 -139l-158 159q-37 -21 -110 -35t-156 -14q-117 0 -219 29t-158 88q-77 81 -104 229.5t-31 358.5q4 59 4 163q6 216 12 301.5t48 195.5t142 179
t273 70zM831 1065q0 95 -26.5 157.5t-75 91.5t-113.5 29q-58 -1 -102.5 -35t-69 -97t-24.5 -150v-578q0 -56 14 -120.5t60.5 -116.5t134.5 -53q26 4 76 12l-62 51l158 135l18 -22q12 45 12 147v121v428z" />
    <glyph glyph-name="R" unicode="R" horiz-adv-x="1251" 
d="M135 1540h557q410 0 424 -356q0 -115 -27.5 -199.5t-82.5 -132.5t-134 -55q90 -13 138.5 -51.5t66 -88t20.5 -115.5q2 -67 3 -106q5 -173 19 -290t52 -117v-29h-331q-9 67 -14 175q-5 107 -15 161v104q0 111 -44.5 165t-191.5 54h-151v-659h-289v1540zM633 1313h-209
v-424h201q95 0 142.5 59t47.5 152q0 111 -40 162t-142 51z" />
    <glyph glyph-name="S" unicode="S" horiz-adv-x="1141" 
d="M727 1071q0 150 -44 211t-128 61q-64 0 -110.5 -41t-49.5 -106q3 -48 30.5 -95.5t74.5 -80.5q29 -19 155.5 -100.5t197.5 -139t123 -131.5t60 -157q4 -58 4 -84q0 -113 -33.5 -195t-91 -134.5t-131 -79t-155.5 -32.5h-47q-222 0 -352.5 103.5t-133.5 369.5q8 70 8 105
h287q0 -17 -2 -43t-4 -49q0 -128 52 -192.5t134 -67.5q53 6 84 16q34 8 61 56.5t27 107.5q0 132 -139 227q-111 72 -189.5 124t-152 121.5t-116 154t-42.5 196.5q19 359 408 377q154 0 263.5 -45.5t166.5 -146t57 -261.5v-49h-272z" />
    <glyph glyph-name="T" unicode="T" 
d="M991 1313h-332v-1313h-286v1313h-336v227h954v-227z" />
    <glyph glyph-name="U" unicode="U" horiz-adv-x="1251" 
d="M139 1540h285v-1083q0 -108 29.5 -166.5t75.5 -78t104 -19.5q89 0 141.5 54.5t52.5 213.5v1079h289v-1104q0 -248 -114.5 -362.5t-372.5 -114.5q-123 0 -213.5 24.5t-152.5 79.5t-93 147t-31 226v1104z" />
    <glyph glyph-name="V" unicode="V" horiz-adv-x="1141" 
d="M580 147l28 269l180 1124h312l-332 -1540h-383l-342 1540h305l207 -1124z" />
    <glyph glyph-name="W" unicode="W" horiz-adv-x="1704" 
d="M47 1540h301l156 -1048l24 -316l27 316l176 1048h246l186 -1048l29 -316l29 316l143 1048h297l-285 -1540h-344l-135 743l-45 369l-41 -369l-119 -743h-348z" />
    <glyph glyph-name="X" unicode="X" horiz-adv-x="1141" 
d="M399 776l-362 760h323l177 -395q25 -77 34 -146h4q8 74 37 146l168 395h324l-369 -756l381 -780h-328l-176 403q-36 104 -49 164q-15 -75 -47 -164l-180 -403h-316z" />
    <glyph glyph-name="Y" unicode="Y" horiz-adv-x="1141" 
d="M571 897q19 98 58 195l176 448h311l-403 -889v-651h-289v651l-399 889h311l180 -448q30 -77 51 -195h4z" />
    <glyph glyph-name="Z" unicode="Z" 
d="M629 1313h-529v223h840v-231q-94 -180 -152 -293t-128 -248t-106 -205.5t-173 -335.5h580v-223h-893v227z" />
    <glyph glyph-name="bracketleft" unicode="[" horiz-adv-x="680" 
d="M571 1536v-152h-180v-1421h180v-156h-407v1729h407z" />
    <glyph glyph-name="backslash" unicode="\" horiz-adv-x="512" 
d="M-180 1536h217l659 -1536h-217z" />
    <glyph glyph-name="bracketright" unicode="]" horiz-adv-x="680" 
d="M293 1380h-184v156h407v-1729h-407v156h184v1417z" />
    <glyph glyph-name="asciicircum" unicode="^" 
d="M387 1536h250l367 -772l-211 -96l-281 571l-281 -571l-211 96z" />
    <glyph glyph-name="underscore" unicode="_" 
d="M0 -125h1024v-119h-1024v119z" />
    <glyph glyph-name="grave" unicode="`" horiz-adv-x="680" 
d="M4 1587h315l193 -299h-209z" />
    <glyph glyph-name="a" unicode="a" 
d="M96 811q0 106 26.5 180t75.5 115.5t121 60.5t168 21q207 0 300.5 -76.5t93.5 -234.5v-697q0 -58 4 -96t18 -84h-256q-10 25 -18 92q4 17 4 37q-96 -158 -248 -158q-54 0 -129 21q-60 20 -97 63.5t-54 104t-17 129.5q0 99 25.5 166.5t67.5 108.5t104 77q36 21 147 67.5
t143 75.5q41 35 41 93q0 60 -33.5 83t-99.5 23q-38 -2 -64.5 -10t-33.5 -21q-24 -30 -30.5 -59.5t-6.5 -81.5h-252zM612 608q-29 -19 -85 -53.5t-93.5 -66t-61.5 -72.5t-28 -97q6 -67 36.5 -102.5t94.5 -44.5q46 6 57 12q31 18 47 41.5t24.5 82t8.5 171.5v129z" />
    <glyph glyph-name="b" unicode="b" 
d="M395 1044q36 70 89 105t132 35q52 0 76 -4q116 -20 165.5 -116t49.5 -308v-369q0 -220 -70.5 -320t-195.5 -100q-83 0 -145.5 35t-110.5 123v-125h-254v1536h264v-492zM395 805v-424q0 -98 36 -154t85 -59q34 1 63.5 26.5t46.5 74t17 112.5v424q0 84 -24.5 130t-98.5 46
q-56 0 -90.5 -48t-34.5 -128z" />
    <glyph glyph-name="c" unicode="c" horiz-adv-x="907" 
d="M827 756h-268v137q0 38 -28 64t-66 26q-40 0 -68 -35t-28 -108v-500q0 -164 92 -164q98 0 98 164v113h268v-113q0 -373 -366 -373q-85 0 -151.5 24.5t-113.5 72.5t-71.5 118.5t-24.5 157.5v416q0 189 56.5 284t133 120.5t171.5 27.5q82 0 161 -26.5t126 -82.5
q42 -45 60.5 -101.5t18.5 -221.5z" />
    <glyph glyph-name="d" unicode="d" 
d="M625 780q0 59 -15 105t-44.5 72t-69.5 26q-70 0 -94.5 -52.5t-24.5 -150.5v-393q0 -103 34 -159t85 -56q55 0 92 50t37 165v393zM633 1032l-8 55v453h264v-1540h-264v131q-27 -75 -92.5 -119.5t-147.5 -44.5q-44 0 -86 13q-41 13 -73.5 40.5t-60 78t-42 124t-14.5 164.5
v397q0 359 219 400q12 0 35 2t32 2q89 0 145.5 -38t92.5 -118z" />
    <glyph glyph-name="e" unicode="e" 
d="M109 788q0 120 36.5 199.5t96.5 123.5t129 60.5t145 16.5q134 -1 212 -38.5t117 -103.5t50.5 -149t11.5 -213v-160h-530v-176q0 -170 127 -176q12 4 33 4q51 6 75.5 56.5t24.5 158.5h266q0 -207 -85.5 -312t-264.5 -108q-86 0 -156.5 11.5t-136.5 56t-108.5 144
t-42.5 261.5v344zM377 727h264v117q0 61 -25 100t-108 39q-79 0 -105 -41t-26 -98v-117z" />
    <glyph glyph-name="f" unicode="f" horiz-adv-x="567" 
d="M143 1155q0 57 -4 84q4 101 20 158.5t64 95.5q32 22 84 32.5t137 10.5h84v-213q-30 12 -63 12q-53 0 -53 -43v-137h116v-194h-116v-961h-269v961h-100v194h100z" />
    <glyph glyph-name="g" unicode="g" 
d="M889 1155v-1114q0 -90 -15 -159.5t-51 -124.5t-96 -89q-41 -23 -116 -39t-154 -16q-138 0 -234 60.5t-102 195.5h266q0 -66 129 -66q117 7 117 168v158q-29 -77 -97 -117.5t-151 -40.5q-81 0 -149 41q-127 79 -127 373v332q0 181 30 281.5t83.5 139.5t137.5 46h43
q79 0 134.5 -35t83.5 -121v127h268zM377 727v-346q0 -115 37.5 -162t81.5 -47q62 6 93.5 53.5t31.5 151.5v391q0 107 -34 160t-91 53q-50 0 -75 -20t-34.5 -72t-9.5 -162z" />
    <glyph glyph-name="h" unicode="h" 
d="M391 1036h4q39 74 104 113t138 39t134 -35.5t96.5 -96.5t35.5 -136v-920h-266v788q0 107 -27.5 150t-101.5 43q-51 -4 -84 -48.5t-33 -139.5v-793h-266v1540h266v-504z" />
    <glyph glyph-name="i" unicode="i" horiz-adv-x="567" 
d="M152 1540h264v-244h-264v244zM152 1155h264v-1155h-264v1155z" />
    <glyph glyph-name="j" unicode="j" horiz-adv-x="567" 
d="M164 1536h264v-240h-264v240zM164 1155h264v-1276q0 -111 -20 -171.5t-62 -81.5t-115 -21q-36 0 -168 8v203h29q38 0 55 13.5t17 57.5v1268z" />
    <glyph glyph-name="k" unicode="k" horiz-adv-x="907" 
d="M100 1536h265v-717q0 -34 -2.5 -75t-2.5 -48h5l251 459h295l-295 -463l283 -692h-295l-168 471l-71 -119v-352h-265v1536z" />
    <glyph glyph-name="l" unicode="l" horiz-adv-x="567" 
d="M152 1536h268v-1536h-268v1536z" />
    <glyph glyph-name="m" unicode="m" horiz-adv-x="1591" 
d="M399 1036h4q30 74 100.5 111t155.5 37q94 0 166 -41t82 -107q33 74 107.5 111t161.5 37q74 0 139.5 -27.5t105 -80.5t39.5 -128v-948h-268v809q0 91 -31 131.5t-100 40.5q-129 -6 -129 -193v-788h-268v823q0 83 -31.5 121.5t-104.5 38.5q-72 -4 -100.5 -50t-28.5 -140
v-793h-264v1155h264v-119z" />
    <glyph glyph-name="n" unicode="n" 
d="M391 1155v-131q16 51 54 87t88 54.5t104 18.5q108 0 185 -67.5t77 -188.5v-928h-262v788q0 89 -25 129.5t-88 43.5q-60 0 -96.5 -47t-36.5 -134v-780h-266v1155h266z" />
    <glyph glyph-name="o" unicode="o" 
d="M516 1188q170 0 255 -63t112.5 -186.5t27.5 -338.5v-201q0 -202 -82 -319t-301 -117q-137 0 -220 31.5t-126.5 101.5t-58 180.5t-14.5 298.5q0 176 14.5 284t57 183.5t123 110.5t212.5 35zM647 748q0 92 -9.5 140.5t-37 71t-84.5 23.5q-84 0 -111.5 -53t-27.5 -170v-420
q0 -82 31.5 -123.5t99.5 -44.5q76 0 107.5 38t31.5 130v408z" />
    <glyph glyph-name="p" unicode="p" 
d="M385 1155v-127q24 73 87 116.5t144 43.5q105 0 168 -64t88 -159.5t25 -204.5v-387q0 -150 -41.5 -252t-142.5 -137q-42 -13 -97 -13q-75 0 -138.5 38t-104.5 120v-516h-252v1542h264zM633 797q0 96 -27 141t-98 45q-58 -2 -90.5 -54.5t-32.5 -144.5v-415q0 -91 30 -139
t81 -54q137 0 137 201v420z" />
    <glyph glyph-name="q" unicode="q" 
d="M616 135q-33 -85 -96.5 -124.5t-142.5 -39.5q-47 0 -89.5 13.5t-64.5 31.5q-67 55 -93 152.5t-26 251.5v328q0 170 36.5 275t107.5 136q68 29 137 29q179 0 231 -164v131h265v-1540h-265v520zM373 760v-361q0 -100 24.5 -161.5t89.5 -61.5q60 0 94.5 53t34.5 136v423
q0 95 -34.5 144t-89.5 49q-44 0 -69 -15t-37.5 -62.5t-12.5 -143.5z" />
    <glyph glyph-name="r" unicode="r" horiz-adv-x="680" 
d="M651 1176v-312h-51q-55 0 -100.5 -13.5t-77 -59t-31.5 -132.5v-659h-266v1155h256v-215q86 236 270 236z" />
    <glyph glyph-name="s" unicode="s" horiz-adv-x="907" 
d="M563 805q0 99 -29.5 137.5t-89.5 38.5q-47 0 -80 -23t-36 -69q7 -60 41 -84q55 -47 160 -115.5t162.5 -113t98.5 -111t41 -158.5q0 -51 -12 -110q-49 -230 -391 -230q-100 0 -184.5 38.5t-135.5 121t-51 201.5q0 34 2 53h269q-4 -42 -4 -57q0 -156 120 -164
q115 14 115 112q0 72 -43 109q-16 14 -130 87.5t-194 146.5t-104 149q-14 42 -25 135q3 104 59.5 167.5t144.5 90.5t190 27q184 0 281.5 -89t97.5 -290h-273z" />
    <glyph glyph-name="t" unicode="t" horiz-adv-x="567" 
d="M516 1155v-190h-113v-680q0 -40 8 -56.5t29 -20t76 -3.5v-209q-15 0 -64 -4t-79 -4q-106 0 -172 42t-66 154v781h-106v190h106v322h268v-322h113z" />
    <glyph glyph-name="u" unicode="u" 
d="M616 1155h269v-1155h-256v184q-25 -117 -96 -167t-164 -50q-77 0 -146 33q-60 31 -83 103t-23 190v862h268v-823q0 -156 115 -156q116 0 116 201v778z" />
    <glyph glyph-name="v" unicode="v" horiz-adv-x="907" 
d="M20 1155h287l125 -694l29 -293l26 293l121 694h285l-268 -1155h-332z" />
    <glyph glyph-name="w" unicode="w" horiz-adv-x="1368" 
d="M20 1155h283l92 -706l25 -252l33 252l106 706h225l127 -706l25 -252l29 252l92 706h266l-236 -1155h-290l-92 508l-33 252l-29 -252l-84 -508h-299z" />
    <glyph glyph-name="x" unicode="x" horiz-adv-x="907" 
d="M319 592l-286 563h315l92 -231l25 -84l22 84l101 231h301l-289 -563l293 -592h-297l-113 252l-22 104l-29 -104l-113 -252h-303z" />
    <glyph glyph-name="y" unicode="y" horiz-adv-x="907" 
d="M12 1155h281l123 -651l33 -268l34 268l125 651h273l-310 -1280q-24 -108 -59.5 -166.5t-90 -81t-136.5 -22.5q-80 0 -129 4v207h53h31q44 0 59.5 9t15.5 40q0 18 -18 110z" />
    <glyph glyph-name="z" unicode="z" horiz-adv-x="797" 
d="M55 1155h693v-194l-420 -756h424v-205h-705v205l406 747h-398v203z" />
    <glyph glyph-name="braceleft" unicode="{" horiz-adv-x="559" 
d="M-63 672q70 6 110.5 61t40.5 148v379q0 102 26.5 162.5t80 87t141.5 26.5h160q-79 -24 -111.5 -58t-40.5 -87t-8 -174v-310q0 -110 -39 -162t-133 -77q91 -12 131.5 -77t40.5 -183v-365q0 -109 39 -156.5t121 -74.5h-160q-152 0 -200 82t-48 227v348q0 74 -32.5 125.5
t-118.5 69.5v8z" />
    <glyph glyph-name="bar" unicode="|" horiz-adv-x="512" 
d="M152 1536h208v-1536h-208v1536z" />
    <glyph glyph-name="braceright" unicode="}" horiz-adv-x="559" 
d="M629 668v-4q-63 -9 -97.5 -36t-47.5 -67.5t-13 -99.5v-344q0 -97 -5 -147.5t-28.5 -87.5t-76.5 -56t-148 -19h-145v5q84 22 119.5 74t35.5 161v373q0 214 185 244q-100 18 -142.5 75.5t-42.5 171.5v369q0 114 -31.5 173.5t-123.5 78.5v4h145q98 0 154 -28.5t80 -88.5
t24 -155v-375q0 -99 42 -155.5t116 -65.5z" />
    <glyph glyph-name="asciitilde" unicode="~" 
d="M168 311l-117 154q67 134 129.5 193t143.5 59q49 0 95 -16.5t115.5 -54t99 -50t75.5 -16.5q43 3 76 37.5t71 117.5l117 -147q-64 -127 -123.5 -182t-136.5 -58q-48 3 -103 21t-127 51q-45 25 -85.5 42t-73.5 17q-37 0 -65 -26.5t-50 -66.5t-41 -75z" />
    <glyph glyph-name="Adieresis" unicode="&#xc4;" horiz-adv-x="1141" 
d="M385 1540h391l344 -1540h-309l-72 387h-336l-79 -387h-304zM692 616l-92 517l-25 235h-4l-22 -235l-105 -517h248zM643 1931h264v-235h-264v235zM248 1931h260v-235h-260v235z" />
    <glyph glyph-name="Aring" unicode="&#xc5;" horiz-adv-x="1141" 
d="M385 1540h391l344 -1540h-309l-72 387h-336l-79 -387h-304zM692 616l-92 517l-25 235h-4l-22 -235l-105 -517h248zM571 1993q46 0 86 -17t70.5 -46.5t48 -70t17.5 -87.5q0 -58 -29.5 -107.5t-82 -79t-110.5 -29.5q-89 0 -154 64t-65 152q0 92 64.5 156.5t154.5 64.5z
M571 1892q-47 0 -80.5 -34.5t-33.5 -81.5q0 -50 33.5 -84.5t80.5 -34.5q51 0 86 34t35 85q0 31 -16 58t-44 42.5t-61 15.5z" />
    <glyph glyph-name="Ccedilla" unicode="&#xc7;" horiz-adv-x="1141" 
d="M1040 1061h-284q0 130 -24.5 190t-59 74t-88.5 14q-56 -1 -96 -40t-60 -101.5t-20 -136.5v-561q0 -142 47.5 -221t136.5 -82q69 0 104.5 33t48.5 108t15 211h289q-8 -131 -23.5 -227t-57.5 -177t-131.5 -131.5t-232.5 -50.5l-63 -94q14 3 84 14q79 0 123.5 -45.5
t44.5 -109.5q0 -63 -37.5 -107t-96 -67t-122.5 -23q-110 0 -230 53l41 88q102 -32 160 -32q42 0 73 23t31 61q0 61 -92 67q-20 -3 -38 -5.5t-38 -8.5l-49 35l105 159q-113 15 -187 59t-118.5 124.5t-63 200t-18.5 282.5v227q0 237 35 386.5t130 231t271 91.5h43
q231 0 339.5 -121.5t108.5 -390.5z" />
    <glyph glyph-name="Eacute" unicode="&#xc9;" 
d="M131 1540h809v-227h-520v-389h477v-224h-477v-477h520v-223h-809v1540zM537 1968h315l-303 -301h-209z" />
    <glyph glyph-name="Ntilde" unicode="&#xd1;" horiz-adv-x="1251" 
d="M139 1540h301l291 -747l141 -449q-9 123 -18.5 248t-17 245.5t-10.5 210.5t-3 148v344h289v-1540h-297l-307 756l-127 411q7 -96 13 -186t14 -215t12 -217t4 -158v-391h-285v1540zM256 1645q0 65 33.5 121.5t90 91t120.5 34.5q39 0 72.5 -10.5t95 -33t100.5 -27.5
q84 0 104 88h132q-42 -238 -216 -248q-43 0 -72 7.5t-79.5 24.5t-85.5 26.5t-72 9.5t-57.5 -22t-36.5 -62h-129z" />
    <glyph glyph-name="Odieresis" unicode="&#xd6;" horiz-adv-x="1251" 
d="M1133 629q-2 -160 -16 -268t-63.5 -201t-150.5 -147t-270 -54q-177 0 -282.5 56.5t-152.5 149t-57.5 184.5t-15.5 251v33v194q1 0 1 3q0 7 -5 30q6 161 27.5 318.5t82.5 240.5q64 79 132 117t127.5 46.5t142.5 8.5q221 0 332 -109t139.5 -259t28.5 -346v-248zM420 1049
v-557q0 -295 213 -295q90 0 146.5 67.5t56.5 227.5v532q0 55 -12.5 125t-58 131.5t-132.5 62.5q-107 0 -160 -76t-53 -218zM696 1939h265v-235h-265v235zM299 1939h260v-235h-260v235z" />
    <glyph glyph-name="Udieresis" unicode="&#xdc;" horiz-adv-x="1251" 
d="M139 1540h285v-1083q0 -108 29.5 -166.5t75.5 -78t104 -19.5q89 0 141.5 54.5t52.5 213.5v1079h289v-1104q0 -248 -114.5 -362.5t-372.5 -114.5q-123 0 -213.5 24.5t-152.5 79.5t-93 147t-31 226v1104zM692 1935h264v-235h-264v235zM297 1935h258v-235h-258v235z" />
    <glyph glyph-name="aacute" unicode="&#xe1;" 
d="M96 811q0 106 26.5 180t75.5 115.5t121 60.5t168 21q207 0 300.5 -76.5t93.5 -234.5v-697q0 -58 4 -96t18 -84h-256q-10 25 -18 92q4 17 4 37q-96 -158 -248 -158q-54 0 -129 21q-60 20 -97 63.5t-54 104t-17 129.5q0 99 25.5 166.5t67.5 108.5t104 77q36 21 147 67.5
t143 75.5q41 35 41 93q0 60 -33.5 83t-99.5 23q-38 -2 -64.5 -10t-33.5 -21q-24 -30 -30.5 -59.5t-6.5 -81.5h-252zM612 608q-29 -19 -85 -53.5t-93.5 -66t-61.5 -72.5t-28 -97q6 -67 36.5 -102.5t94.5 -44.5q46 6 57 12q31 18 47 41.5t24.5 82t8.5 171.5v129zM541 1587h315
l-303 -299h-209z" />
    <glyph glyph-name="agrave" unicode="&#xe0;" 
d="M96 811q0 106 26.5 180t75.5 115.5t121 60.5t168 21q207 0 300.5 -76.5t93.5 -234.5v-697q0 -58 4 -96t18 -84h-256q-10 25 -18 92q4 17 4 37q-96 -158 -248 -158q-54 0 -129 21q-60 20 -97 63.5t-54 104t-17 129.5q0 99 25.5 166.5t67.5 108.5t104 77q36 21 147 67.5
t143 75.5q41 35 41 93q0 60 -33.5 83t-99.5 23q-38 -2 -64.5 -10t-33.5 -21q-24 -30 -30.5 -59.5t-6.5 -81.5h-252zM612 608q-29 -19 -85 -53.5t-93.5 -66t-61.5 -72.5t-28 -97q6 -67 36.5 -102.5t94.5 -44.5q46 6 57 12q31 18 47 41.5t24.5 82t8.5 171.5v129zM176 1587h316
l192 -299h-209z" />
    <glyph glyph-name="acircumflex" unicode="&#xe2;" 
d="M96 811q0 106 26.5 180t75.5 115.5t121 60.5t168 21q207 0 300.5 -76.5t93.5 -234.5v-697q0 -58 4 -96t18 -84h-256q-10 25 -18 92q4 17 4 37q-96 -158 -248 -158q-54 0 -129 21q-60 20 -97 63.5t-54 104t-17 129.5q0 99 25.5 166.5t67.5 108.5t104 77q36 21 147 67.5
t143 75.5q41 35 41 93q0 60 -33.5 83t-99.5 23q-38 -2 -64.5 -10t-33.5 -21q-24 -30 -30.5 -59.5t-6.5 -81.5h-252zM612 608q-29 -19 -85 -53.5t-93.5 -66t-61.5 -72.5t-28 -97q6 -67 36.5 -102.5t94.5 -44.5q46 6 57 12q31 18 47 41.5t24.5 82t8.5 171.5v129zM385 1579h258
l238 -299h-238l-127 168l-131 -168h-233z" />
    <glyph glyph-name="adieresis" unicode="&#xe4;" 
d="M96 811q0 106 26.5 180t75.5 115.5t121 60.5t168 21q207 0 300.5 -76.5t93.5 -234.5v-697q0 -58 4 -96t18 -84h-256q-10 25 -18 92q4 17 4 37q-96 -158 -248 -158q-54 0 -129 21q-60 20 -97 63.5t-54 104t-17 129.5q0 99 25.5 166.5t67.5 108.5t104 77q36 21 147 67.5
t143 75.5q41 35 41 93q0 60 -33.5 83t-99.5 23q-38 -2 -64.5 -10t-33.5 -21q-24 -30 -30.5 -59.5t-6.5 -81.5h-252zM612 608q-29 -19 -85 -53.5t-93.5 -66t-61.5 -72.5t-28 -97q6 -67 36.5 -102.5t94.5 -44.5q46 6 57 12q31 18 47 41.5t24.5 82t8.5 171.5v129zM580 1556h264
v-235h-264v235zM184 1556h260v-235h-260v235z" />
    <glyph glyph-name="atilde" unicode="&#xe3;" 
d="M96 811q0 106 26.5 180t75.5 115.5t121 60.5t168 21q207 0 300.5 -76.5t93.5 -234.5v-697q0 -58 4 -96t18 -84h-256q-10 25 -18 92q4 17 4 37q-96 -158 -248 -158q-54 0 -129 21q-60 20 -97 63.5t-54 104t-17 129.5q0 99 25.5 166.5t67.5 108.5t104 77q36 21 147 67.5
t143 75.5q41 35 41 93q0 60 -33.5 83t-99.5 23q-38 -2 -64.5 -10t-33.5 -21q-24 -30 -30.5 -59.5t-6.5 -81.5h-252zM612 608q-29 -19 -85 -53.5t-93.5 -66t-61.5 -72.5t-28 -97q6 -67 36.5 -102.5t94.5 -44.5q46 6 57 12q31 18 47 41.5t24.5 82t8.5 171.5v129zM139 1264
q0 66 33.5 122.5t91 90.5t121.5 34q38 0 69 -9.5t94.5 -33t102.5 -28.5q83 0 105 88h133q-44 -234 -217 -248q-63 0 -161 34t-146 34q-39 0 -57 -19t-40 -65h-129z" />
    <glyph glyph-name="aring" unicode="&#xe5;" 
d="M96 811q0 106 26.5 180t75.5 115.5t121 60.5t168 21q207 0 300.5 -76.5t93.5 -234.5v-697q0 -58 4 -96t18 -84h-256q-10 25 -18 92q4 17 4 37q-96 -158 -248 -158q-54 0 -129 21q-60 20 -97 63.5t-54 104t-17 129.5q0 99 25.5 166.5t67.5 108.5t104 77q36 21 147 67.5
t143 75.5q41 35 41 93q0 60 -33.5 83t-99.5 23q-38 -2 -64.5 -10t-33.5 -21q-24 -30 -30.5 -59.5t-6.5 -81.5h-252zM612 608q-29 -19 -85 -53.5t-93.5 -66t-61.5 -72.5t-28 -97q6 -67 36.5 -102.5t94.5 -44.5q46 6 57 12q31 18 47 41.5t24.5 82t8.5 171.5v129zM512 1733
q91 0 155 -64t64 -158q0 -90 -64.5 -152.5t-154.5 -62.5t-154.5 63.5t-64.5 151.5q0 92 64 157t155 65zM512 1632q-48 0 -82.5 -34.5t-34.5 -81.5q0 -50 34.5 -84.5t82.5 -34.5q50 0 85.5 33.5t35.5 85.5q0 49 -35.5 82.5t-85.5 33.5z" />
    <glyph glyph-name="ccedilla" unicode="&#xe7;" horiz-adv-x="907" 
d="M559 756v125q0 31 -12 54t-31.5 34.5t-46.5 11.5q-40 0 -70 -36.5t-30 -100.5v-484q0 -96 22 -140t74 -44q50 0 72 44t22 140v93h268v-125q0 -141 -72.5 -249t-262.5 -108l-60 -96q34 6 64 6q57 0 99.5 -20t63.5 -54.5t21 -74.5q0 -50 -28 -95.5t-85.5 -73.5t-138.5 -28
q-105 0 -231 53l34 84q83 -32 154 -32q54 0 84.5 24t30.5 55q0 30 -23.5 49.5t-68.5 22.5q-67 -12 -84 -18l-39 43l102 159q-125 11 -189 84t-81 156t-17 162v379q0 236 90.5 334t274.5 98q124 0 205 -44t119 -124t38 -184v-80h-268z" />
    <glyph glyph-name="eacute" unicode="&#xe9;" 
d="M109 788q0 120 36.5 199.5t96.5 123.5t129 60.5t145 16.5q134 -1 212 -38.5t117 -103.5t50.5 -149t11.5 -213v-160h-530v-176q0 -170 127 -176q12 4 33 4q51 6 75.5 56.5t24.5 158.5h266q0 -207 -85.5 -312t-264.5 -108q-86 0 -156.5 11.5t-136.5 56t-108.5 144
t-42.5 261.5v344zM377 727h264v117q0 61 -25 100t-108 39q-79 0 -105 -41t-26 -98v-117zM541 1587h315l-303 -299h-209z" />
    <glyph glyph-name="egrave" unicode="&#xe8;" 
d="M109 788q0 120 36.5 199.5t96.5 123.5t129 60.5t145 16.5q134 -1 212 -38.5t117 -103.5t50.5 -149t11.5 -213v-160h-530v-176q0 -170 127 -176q12 4 33 4q51 6 75.5 56.5t24.5 158.5h266q0 -207 -85.5 -312t-264.5 -108q-86 0 -156.5 11.5t-136.5 56t-108.5 144
t-42.5 261.5v344zM377 727h264v117q0 61 -25 100t-108 39q-79 0 -105 -41t-26 -98v-117zM176 1587h316l192 -299h-209z" />
    <glyph glyph-name="ecircumflex" unicode="&#xea;" 
d="M109 788q0 120 36.5 199.5t96.5 123.5t129 60.5t145 16.5q134 -1 212 -38.5t117 -103.5t50.5 -149t11.5 -213v-160h-530v-176q0 -170 127 -176q12 4 33 4q51 6 75.5 56.5t24.5 158.5h266q0 -207 -85.5 -312t-264.5 -108q-86 0 -156.5 11.5t-136.5 56t-108.5 144
t-42.5 261.5v344zM377 727h264v117q0 61 -25 100t-108 39q-79 0 -105 -41t-26 -98v-117zM381 1579h260l236 -299h-236l-129 168l-131 -168h-234z" />
    <glyph glyph-name="edieresis" unicode="&#xeb;" 
d="M109 788q0 120 36.5 199.5t96.5 123.5t129 60.5t145 16.5q134 -1 212 -38.5t117 -103.5t50.5 -149t11.5 -213v-160h-530v-176q0 -170 127 -176q12 4 33 4q51 6 75.5 56.5t24.5 158.5h266q0 -207 -85.5 -312t-264.5 -108q-86 0 -156.5 11.5t-136.5 56t-108.5 144
t-42.5 261.5v344zM377 727h264v117q0 61 -25 100t-108 39q-79 0 -105 -41t-26 -98v-117zM580 1556h264v-235h-264v235zM184 1556h260v-235h-260v235z" />
    <glyph glyph-name="iacute" unicode="&#xed;" horiz-adv-x="567" 
d="M152 1155h264v-1155h-264v1155zM303 1587h318l-306 -299h-206z" />
    <glyph glyph-name="igrave" unicode="&#xec;" horiz-adv-x="567" 
d="M152 1155h264v-1155h-264v1155zM-51 1587h315l193 -299h-209z" />
    <glyph glyph-name="icircumflex" unicode="&#xee;" horiz-adv-x="567" 
d="M152 1155h264v-1155h-264v1155zM131 1579h260l238 -299h-238l-127 168l-133 -168h-231z" />
    <glyph glyph-name="idieresis" unicode="&#xef;" horiz-adv-x="567" 
d="M152 1155h264v-1155h-264v1155zM352 1556h264v-235h-264v235zM-43 1556h258v-235h-258v235z" />
    <glyph glyph-name="ntilde" unicode="&#xf1;" 
d="M391 1155v-131q16 51 54 87t88 54.5t104 18.5q108 0 185 -67.5t77 -188.5v-928h-262v788q0 89 -25 129.5t-88 43.5q-60 0 -96.5 -47t-36.5 -134v-780h-266v1155h266zM139 1264q0 66 33.5 122.5t91 90.5t121.5 34q38 0 69 -9.5t94.5 -33t102.5 -28.5q83 0 105 88h133
q-44 -234 -217 -248q-63 0 -161 34t-146 34q-39 0 -57 -19t-40 -65h-129z" />
    <glyph glyph-name="oacute" unicode="&#xf3;" 
d="M516 1188q170 0 255 -63t112.5 -186.5t27.5 -338.5v-201q0 -202 -82 -319t-301 -117q-137 0 -220 31.5t-126.5 101.5t-58 180.5t-14.5 298.5q0 176 14.5 284t57 183.5t123 110.5t212.5 35zM647 748q0 92 -9.5 140.5t-37 71t-84.5 23.5q-84 0 -111.5 -53t-27.5 -170v-420
q0 -82 31.5 -123.5t99.5 -44.5q76 0 107.5 38t31.5 130v408zM541 1587h315l-303 -299h-209z" />
    <glyph glyph-name="ograve" unicode="&#xf2;" 
d="M516 1188q170 0 255 -63t112.5 -186.5t27.5 -338.5v-201q0 -202 -82 -319t-301 -117q-137 0 -220 31.5t-126.5 101.5t-58 180.5t-14.5 298.5q0 176 14.5 284t57 183.5t123 110.5t212.5 35zM647 748q0 92 -9.5 140.5t-37 71t-84.5 23.5q-84 0 -111.5 -53t-27.5 -170v-420
q0 -82 31.5 -123.5t99.5 -44.5q76 0 107.5 38t31.5 130v408zM176 1587h316l192 -299h-209z" />
    <glyph glyph-name="ocircumflex" unicode="&#xf4;" 
d="M516 1188q170 0 255 -63t112.5 -186.5t27.5 -338.5v-201q0 -202 -82 -319t-301 -117q-137 0 -220 31.5t-126.5 101.5t-58 180.5t-14.5 298.5q0 176 14.5 284t57 183.5t123 110.5t212.5 35zM647 748q0 92 -9.5 140.5t-37 71t-84.5 23.5q-84 0 -111.5 -53t-27.5 -170v-420
q0 -82 31.5 -123.5t99.5 -44.5q76 0 107.5 38t31.5 130v408zM381 1577h260l236 -301h-236l-129 168l-131 -168h-234z" />
    <glyph glyph-name="odieresis" unicode="&#xf6;" 
d="M516 1188q170 0 255 -63t112.5 -186.5t27.5 -338.5v-201q0 -202 -82 -319t-301 -117q-137 0 -220 31.5t-126.5 101.5t-58 180.5t-14.5 298.5q0 176 14.5 284t57 183.5t123 110.5t212.5 35zM647 748q0 92 -9.5 140.5t-37 71t-84.5 23.5q-84 0 -111.5 -53t-27.5 -170v-420
q0 -82 31.5 -123.5t99.5 -44.5q76 0 107.5 38t31.5 130v408zM580 1556h264v-235h-264v235zM184 1556h260v-235h-260v235z" />
    <glyph glyph-name="otilde" unicode="&#xf5;" 
d="M516 1188q170 0 255 -63t112.5 -186.5t27.5 -338.5v-201q0 -202 -82 -319t-301 -117q-137 0 -220 31.5t-126.5 101.5t-58 180.5t-14.5 298.5q0 176 14.5 284t57 183.5t123 110.5t212.5 35zM647 748q0 92 -9.5 140.5t-37 71t-84.5 23.5q-84 0 -111.5 -53t-27.5 -170v-420
q0 -82 31.5 -123.5t99.5 -44.5q76 0 107.5 38t31.5 130v408zM139 1264q0 66 33.5 122.5t91 90.5t121.5 34q38 0 69 -9.5t94.5 -33t102.5 -28.5q83 0 105 88h133q-44 -234 -217 -248q-63 0 -161 34t-146 34q-39 0 -57 -19t-40 -65h-129z" />
    <glyph glyph-name="uacute" unicode="&#xfa;" 
d="M616 1155h269v-1155h-256v184q-25 -117 -96 -167t-164 -50q-77 0 -146 33q-60 31 -83 103t-23 190v862h268v-823q0 -156 115 -156q116 0 116 201v778zM541 1587h315l-303 -299h-209z" />
    <glyph glyph-name="ugrave" unicode="&#xf9;" 
d="M172 1587h315l193 -299h-209zM616 1155h269v-1155h-256v184q-25 -117 -96 -167t-164 -50q-77 0 -146 33q-60 31 -83 103t-23 190v862h268v-823q0 -156 115 -156q116 0 116 201v778z" />
    <glyph glyph-name="ucircumflex" unicode="&#xfb;" 
d="M616 1155h269v-1155h-256v184q-25 -117 -96 -167t-164 -50q-77 0 -146 33q-60 31 -83 103t-23 190v862h268v-823q0 -156 115 -156q116 0 116 201v778zM381 1599h260l236 -299h-236l-129 168l-131 -168h-234z" />
    <glyph glyph-name="udieresis" unicode="&#xfc;" 
d="M616 1155h269v-1155h-256v184q-25 -117 -96 -167t-164 -50q-77 0 -146 33q-60 31 -83 103t-23 190v862h268v-823q0 -156 115 -156q116 0 116 201v778zM580 1556h264v-235h-264v235zM184 1556h260v-235h-260v235z" />
    <glyph glyph-name="dagger" unicode="&#x2020;" 
d="M385 1096v481h262v-481h301v-232h-301v-1183h-262v1183h-309v232h309z" />
    <glyph glyph-name="cent" unicode="&#xa2;" 
d="M555 1180l37 196h143l-43 -227q74 -34 114.5 -83.5t54.5 -104t16 -109.5t4 -104h-273v196l-133 -751q12 -5 35 -5q40 0 62 27t29 67t7 95v72h269v-48q0 -206 -85.5 -322t-263.5 -116q-53 0 -79 4l-41 -215h-140l43 256q-98 61 -131 154.5t-33 206.5v419q0 97 25.5 174
t71 127.5t103 74.5t122.5 24q32 0 86 -8zM516 965q-61 0 -91 -33.5t-30 -122.5v-549z" />
    <glyph glyph-name="sterling" unicode="&#xa3;" 
d="M205 811q-36 54 -64.5 148.5t-31.5 189.5q2 103 40.5 193t126.5 152.5t232 78.5q16 2 51 2q109 0 203.5 -41.5t152.5 -135t58 -239.5v-67h-260q0 142 -35 197.5t-119 58.5q-173 0 -182 -199q12 -76 29.5 -137t64.5 -201h301v-119h-256q21 -72 21 -121q0 -79 -35 -154.5
t-92 -136.5t-121 -100l8 -4q113 64 211 64q49 0 144.5 -18.5t115.5 -20.5q42 3 80 17t92 50l55 -225q-106 -72 -264 -72q-41 0 -95.5 11.5t-100 23.5t-88 19.5t-82.5 7.5q-99 0 -222 -66l-71 197q58 31 106.5 88t77.5 131.5t29 153.5q0 74 -33 155h-176v119h129z" />
    <glyph glyph-name="section" unicode="&#xa7;" 
d="M252 981q-38 37 -67.5 108.5t-32.5 149.5q6 158 117 246t272 88q68 0 132.5 -17.5t115 -58.5t80.5 -111.5t30 -173.5h-252q0 79 -33.5 119.5t-85.5 40.5q-53 0 -91.5 -39.5t-41.5 -93.5q7 -64 45 -94q41 -37 87.5 -74.5t109.5 -85.5t120 -93.5t95 -82.5q45 -42 70.5 -108
t25.5 -138q0 -57 -18.5 -113.5t-57 -107t-96.5 -86.5q44 -33 76.5 -110t32.5 -162q0 -106 -55.5 -187.5t-147.5 -125.5t-195 -44q-154 0 -266 91t-112 307h256q0 -93 39 -139t96 -46q53 0 95 36.5t42 94.5q0 64 -62 125q-21 21 -53.5 46.5t-131 102.5t-142 114t-96.5 90
q-73 72 -80 223q3 99 48.5 183t131.5 126zM391 844q-35 -12 -58 -47t-26 -80q7 -69 58 -109l268 -221q36 22 54 56t18 73q0 36 -13 66t-37 47z" />
    <glyph glyph-name="bullet" unicode="&#x2022;" horiz-adv-x="680" 
d="M475 643v-266h-266v266h266z" />
    <glyph glyph-name="paragraph" unicode="&#xb6;" horiz-adv-x="1128" 
d="M369 819q-150 6 -236 103.5t-86 265.5q0 96 48.5 176.5t141.5 126t216 45.5h626v-240h-88v-1532h-239v1532h-140v-1532h-243v1055z" />
    <glyph glyph-name="germandbls" unicode="&#xdf;" 
d="M387 0h-262v1188q0 130 51 217.5t135 129.5t181 42q88 0 169.5 -32t138 -92.5t72.5 -139.5q13 -96 13 -150q0 -98 -36.5 -171.5t-127.5 -98.5q83 -15 125.5 -98.5t53.5 -176t11 -190.5q-9 -229 -76.5 -343t-197.5 -114q-70 0 -154 29v193q22 -9 62 -17q98 6 98 176v244
q0 85 -24 132.5t-115 47.5v201q43 2 69.5 10.5t41 35t14.5 85.5v135q0 58 -34.5 91.5t-82.5 33.5q-51 0 -88 -38.5t-37 -108.5v-1221z" />
    <glyph glyph-name="registered" unicode="&#xae;" horiz-adv-x="1700" 
d="M868 1577q159 -1 300.5 -62.5t252 -173t173 -260.5t63.5 -321q0 -140 -58.5 -284t-163 -258.5t-252.5 -184.5t-315 -70q-174 0 -327 63.5t-264.5 175t-172.5 256t-61 302.5q0 161 61 311.5t172.5 264t262 177.5t329.5 64zM868 1423q-201 0 -354.5 -96t-236 -249
t-84.5 -314q2 0 3 -1.5t1 -2.5q5 -156 83 -304t229.5 -243.5t358.5 -95.5q185 0 329.5 95t224 245.5t81.5 302.5q0 124 -47 242.5t-132.5 213t-201.5 150.5t-254 57zM520 1200h475q285 0 285 -289q-3 -91 -62.5 -151t-177.5 -60l211 -368h-198l-193 368h-168v-368h-172v868z
M692 1071v-244h277q139 0 139 125q0 119 -152 119h-264z" />
    <glyph glyph-name="copyright" unicode="&#xa9;" horiz-adv-x="1700" 
d="M848 1573q181 0 330 -64t256.5 -175.5t164 -251t58.5 -285.5q0 -154 -56.5 -305.5t-161 -270.5t-257.5 -190.5t-334 -71.5q-144 0 -285 53.5t-260 163.5t-187.5 267.5t-68.5 353.5q0 198 106.5 378t292 289t402.5 109zM848 1423q-176 0 -325.5 -89.5t-237.5 -235
t-88 -301.5q0 -132 44 -253.5t128 -216t205.5 -150.5t273.5 -60q137 0 257.5 52.5t210.5 143t140.5 211.5t50.5 248q0 126 -54 244.5t-147.5 210t-212 144t-245.5 52.5zM1260 936h-181q-9 73 -64.5 114.5t-133.5 41.5q-64 0 -121 -30t-95 -93t-44 -154q0 -124 47 -214
t120 -118q32 -14 97 -22q76 3 130 44.5t64 123.5h185q-19 -149 -127.5 -232t-255.5 -86q-108 2 -207.5 53t-163.5 150.5t-70 237.5q0 162 62 273t162.5 164.5t212.5 53.5q93 0 177 -35.5t139 -104.5t67 -167z" />
    <glyph glyph-name="trademark" unicode="&#x2122;" horiz-adv-x="1759" 
d="M236 1376h-232v164h633v-164h-238v-667h-163v667zM725 1540h262l168 -491l166 491h266v-831h-164v680l-219 -680h-96l-219 675v-675h-164v831z" />
    <glyph glyph-name="acute" unicode="&#xb4;" horiz-adv-x="680" 
d="M365 1587h315l-303 -299h-209z" />
    <glyph glyph-name="dieresis" unicode="&#xa8;" horiz-adv-x="680" 
d="M408 1556h264v-235h-264v235zM12 1556h260v-235h-260v235z" />
    <glyph glyph-name="AE" unicode="&#xc6;" horiz-adv-x="1591" 
d="M1536 1536v-223h-500v-393h467v-220h-467v-477h500v-223h-788v391h-353l-135 -391h-303l588 1536h991zM692 1251l-217 -630h273v630h-56z" />
    <glyph glyph-name="Oslash" unicode="&#xd8;" horiz-adv-x="1251" 
d="M991 1452l92 147l101 -71l-119 -193q41 -75 54.5 -190t13.5 -268v-248q-2 -160 -16 -268t-63.5 -201t-150.5 -147t-270 -54q-127 0 -218.5 31t-146.5 86l-92 -152l-104 60l121 188q-30 65 -45 142t-19 146t-4 173v194q1 0 1 3q0 7 -5 30q6 161 27.5 318.5t82.5 240.5
q64 79 132 117t127.5 46.5t142.5 8.5q130 0 216.5 -35t141.5 -104zM420 563l385 617q-6 157 -172 163q-106 0 -159.5 -78.5t-53.5 -215.5v-486zM440 352q39 -155 193 -155q90 0 146.5 67.5t56.5 227.5v489z" />
    <glyph glyph-name="plusminus" unicode="&#xb1;" 
d="M399 776v277h226v-277h348v-223h-348v-277h-226v277h-348v223h348zM51 -33v230h922v-230h-922z" />
    <glyph glyph-name="yen" unicode="&#xa5;" 
d="M877 428h-222v-125h222v-102h-222v-201h-282v201h-234v102h234v125h-234v104h234v115l-410 889h322l186 -475l45 -168l43 168l193 475h313l-410 -885v-119h222v-104z" />
    <glyph glyph-name="mu" unicode="&#xb5;" 
d="M616 1155h269v-1155h-256v184q-20 -81 -65 -132.5t-115 -51.5q-37 0 -64 12v-399h-264v676v866h264v-823q0 -156 115 -156q116 0 116 193v786z" />
    <glyph glyph-name="ordfeminine" unicode="&#xaa;" horiz-adv-x="616" 
d="M41 596v129h534v-129h-534zM47 1352q0 122 61.5 170t176.5 55q131 0 202.5 -40t71.5 -136v-365q0 -16 -4 -37q1 -12 4.5 -42t7.5 -55t8 -38h-163q-3 9 -9 24.5t-8 26.5q4 9 4 17h-4q-52 -85 -164 -92q-37 3 -70 14.5t-52 26.5q-27 17 -45 62.5t-21 100.5q7 91 41 132
q30 38 69 58.5t109 48.5t99.5 49t29.5 57q0 39 -20.5 55t-63.5 16q-45 0 -68.5 -29t-23.5 -79h-168zM387 1229q-13 -9 -66 -40.5t-76.5 -59.5t-29.5 -76q7 -88 88 -88q84 5 84 114v150z" />
    <glyph glyph-name="ordmasculine" unicode="&#xba;" horiz-adv-x="616" 
d="M43 725h524v-129h-524v129zM43 1296q0 125 43 186t97 76t124 15q75 0 128.5 -15.5t92.5 -76t39 -185.5v-200q0 -111 -37.5 -167t-91.5 -70.5t-131 -14.5q-66 0 -122 14.5t-99 69t-43 164.5v204zM395 1380q0 34 -26 53t-66 19q-34 0 -61 -19t-27 -53v-327q0 -41 26.5 -63
t61.5 -25q40 3 66 24.5t26 59.5v331z" />
    <glyph glyph-name="ae" unicode="&#xe6;" horiz-adv-x="1481" 
d="M764 1116q17 17 58 35t90 27.5t100 9.5q153 0 258.5 -84.5t105.5 -276.5v-295h-504v-200q0 -78 35 -119.5t84 -44.5q51 3 86 35t35 82v106h264q2 -18 2 -55q0 -125 -53.5 -208t-140 -122t-185.5 -39q-91 0 -168.5 35.5t-109.5 93.5q-26 -56 -107.5 -92.5t-181.5 -36.5
q-90 0 -143 21q-180 65 -197 260q-2 16 -2 47q0 137 60.5 221.5t116.5 114t176 82t145 88.5q28 36 28 80q0 32 -19 55.5t-53.5 35t-78.5 11.5q-52 -8 -76 -44.5t-24 -119.5h-269q0 96 20.5 162t57.5 106t94 66q91 35 203 35q91 0 171 -20.5t122 -51.5zM608 608
q-17 -12 -76.5 -48.5t-95 -67.5t-58 -78.5t-22.5 -114.5q0 -61 31 -94.5t78 -36.5q58 3 100.5 48.5t42.5 119.5v272zM1112 735v117q0 63 -34 97t-83 34t-86 -35t-37 -96v-117h240z" />
    <glyph glyph-name="oslash" unicode="&#xf8;" 
d="M516 1188q193 0 285 -88l106 164l101 -72l-136 -205q21 -62 30 -159t9 -228v-201q0 -202 -82 -319t-301 -117q-105 0 -175 18t-122 56l-106 -158l-109 74l140 199q-47 129 -47 423q0 176 14.5 284t57 183.5t123 110.5t212.5 35zM377 449l266 399q-1 71 -32.5 103
t-94.5 32q-84 0 -111.5 -53t-27.5 -170v-311zM381 293q4 -57 37.5 -89t89.5 -32q75 0 107 39t32 129v352z" />
    <glyph glyph-name="questiondown" unicode="&#xbf;" 
d="M721 924h-260v264h260v-264zM721 772q0 -145 -27 -237t-98 -183q-32 -37 -69.5 -81t-61 -77t-39 -68.5t-18.5 -74.5q0 -39 -5 -67q6 -72 30 -116t91 -44q57 0 87 20.5t41.5 68.5t11.5 138h251q0 -161 -45.5 -258t-133 -138.5t-220.5 -41.5q-106 0 -201 42.5t-143 129.5
q-45 79 -51 215q7 138 59 223q52 87 112.5 155t104 117.5t63 110t19.5 166.5h242z" />
    <glyph glyph-name="exclamdown" unicode="&#xa1;" horiz-adv-x="680" 
d="M209 1188h266v-273h-266v273zM252 793h180l43 -541v-600h-266v600z" />
    <glyph glyph-name="logicalnot" unicode="&#xac;" 
d="M51 819h922v-604h-225v381h-697v223z" />
    <glyph glyph-name="florin" unicode="&#x192;" 
d="M176 1016h256q24 193 72 310.5t121.5 169.5t175.5 52q91 0 198 -32l-47 -211q-45 26 -84 26q-65 0 -108 -82.5t-55 -232.5h231v-193h-260l-144 -807q-22 -96 -38.5 -152t-54 -113.5t-104 -92.5t-167.5 -35q-66 0 -168 21l47 227q59 -18 88 -18q55 0 83 41.5t38 121.5
l147 807h-227v193z" />
    <glyph glyph-name="guillemotleft" unicode="&#xab;" 
d="M860 915v-227l-196 -164l196 -164v-231l-328 291v209zM475 915v-227l-194 -164l194 -164v-231l-323 291v209z" />
    <glyph glyph-name="guillemotright" unicode="&#xbb;" 
d="M553 915l319 -286v-209l-319 -291v227l195 176l-195 156v227zM164 915l328 -286v-209l-328 -291v231l201 172l-201 156v227z" />
    <glyph glyph-name="ellipsis" unicode="&#x2026;" horiz-adv-x="2048" 
d="M1843 0h-270v268h270v-268zM889 268h270v-268h-270v268zM209 268h266v-268h-266v268z" />
    <glyph glyph-name="Agrave" unicode="&#xc0;" horiz-adv-x="1141" 
d="M385 1540h391l344 -1540h-309l-72 387h-336l-79 -387h-304zM692 616l-92 517l-25 235h-4l-22 -235l-105 -517h248zM236 1968h317l190 -301h-206z" />
    <glyph glyph-name="Atilde" unicode="&#xc3;" horiz-adv-x="1141" 
d="M385 1540h391l344 -1540h-309l-72 387h-336l-79 -387h-304zM692 616l-92 517l-25 235h-4l-22 -235l-105 -517h248zM197 1645q0 64 33 121.5t89 91.5t121 34q39 0 73 -10.5t95.5 -33t100.5 -27.5q84 0 102 88h133q-22 -122 -79.5 -182.5t-137.5 -65.5q-42 0 -70.5 7
t-79.5 24.5t-86 27t-71 9.5q-37 0 -57 -21t-39 -63h-127z" />
    <glyph glyph-name="Otilde" unicode="&#xd5;" horiz-adv-x="1251" 
d="M1133 629q-2 -160 -16 -268t-63.5 -201t-150.5 -147t-270 -54q-177 0 -282.5 56.5t-152.5 149t-57.5 184.5t-15.5 251v33v194q1 0 1 3q0 7 -5 30q6 161 27.5 318.5t82.5 240.5q64 79 132 117t127.5 46.5t142.5 8.5q221 0 332 -109t139.5 -259t28.5 -346v-248zM420 1049
v-557q0 -295 213 -295q90 0 146.5 67.5t56.5 227.5v532q0 55 -12.5 125t-58 131.5t-132.5 62.5q-107 0 -160 -76t-53 -218zM256 1645q0 65 33.5 121.5t90 91t120.5 34.5q39 0 72.5 -10.5t95 -33t100.5 -27.5q84 0 104 88h132q-42 -238 -216 -248q-43 0 -72 7.5t-79.5 24.5
t-85.5 26.5t-72 9.5t-57.5 -22t-36.5 -62h-129z" />
    <glyph glyph-name="OE" unicode="&#x152;" horiz-adv-x="1704" 
d="M856 1405v135h768v-227h-508v-393h471v-224h-471v-473h508v-223h-776v156q-68 -95 -136 -142t-159 -47q-63 0 -141 25q-94 31 -159 117.5t-96.5 217.5t-31.5 302v291q0 226 62.5 373.5t160.5 213.5t207 66q100 0 183 -47t118 -121zM827 1124q0 95 -55 157t-131 62
q-96 0 -162.5 -102.5t-66.5 -308.5v-299q0 -122 17 -206.5t46.5 -134.5t67 -72.5t82.5 -22.5q91 0 146.5 55.5t55.5 222.5v649z" />
    <glyph glyph-name="oe" unicode="&#x153;" horiz-adv-x="1481" 
d="M748 1067q18 35 59 62.5t97.5 43t115.5 15.5q92 0 172 -33q64 -27 108 -85t66.5 -143t22.5 -196v-203h-504v-209q0 -70 35 -109t84 -42q51 3 85.5 40.5t34.5 106.5v76h265q0 -145 -34.5 -231t-92.5 -124.5t-138 -51.5q-65 -13 -125 -13q-162 0 -251 109
q-42 -51 -112.5 -80t-164.5 -29q-45 0 -106 9q-128 22 -198.5 119.5t-70.5 291.5v344q0 116 22 198.5t63.5 135.5t99.5 80q97 39 190 39q86 0 159 -30t118 -91zM360 324q0 -71 36 -110t87 -42q56 3 94.5 44t38.5 112v512q0 66 -37.5 103.5t-91.5 37.5q-51 0 -89 -38.5
t-38 -106.5v-512zM1124 731v133q0 53 -35 85t-85 32t-84.5 -32.5t-34.5 -88.5v-129h239z" />
    <glyph glyph-name="emdash" unicode="&#x2013;" 
d="M0 756h1024v-224h-1024v224z" />
    <glyph glyph-name="endash" unicode="&#x2014;" horiz-adv-x="2048" 
d="M0 760h2044h8v-228h-2044h-8v228z" />
    <glyph glyph-name="quotedblleft" unicode="&#x201c;" 
d="M580 1016v264q0 259 251 289v-92q-55 -4 -93 -49t-38 -148h131v-264h-251zM180 1016v264q0 66 16.5 119t47.5 87t77 54.5t107 28.5v-92q-55 -4 -93 -51t-38 -146h131v-264h-248z" />
    <glyph glyph-name="quotedblright" unicode="&#x201d;" 
d="M600 1536h248v-264q0 -75 -24.5 -136.5t-79.5 -102t-144 -50.5v92q39 10 62.5 22t44 53.5t20.5 121.5h-127v264zM197 1536h247v-264q0 -51 -10 -95t-38 -87t-76 -70.5t-123 -36.5v92q65 18 98 53t33 144h-131v264z" />
    <glyph glyph-name="quoteleft" unicode="&#x2018;" horiz-adv-x="567" 
d="M156 1016v264q0 90 27.5 148.5t68.5 87.5t86.5 40.5t64.5 16.5v-96q-56 -7 -93.5 -50.5t-37.5 -146.5h131v-264h-247z" />
    <glyph glyph-name="quoteright" unicode="&#x2019;" horiz-adv-x="567" 
d="M164 1536h248v-264q0 -260 -248 -289v92q41 8 68 23.5t46 58.5t19 115h-133v264z" />
    <glyph glyph-name="ydieresis" unicode="&#xff;" horiz-adv-x="907" 
d="M12 1155h281l123 -651l33 -268l34 268l125 651h273l-310 -1280q-24 -108 -59.5 -166.5t-90 -81t-136.5 -22.5q-80 0 -129 4v207h53h31q44 0 59.5 9t15.5 40q0 18 -18 110zM524 1556h264v-235h-264v235zM129 1556h258v-235h-258v235z" />
    <glyph glyph-name="currency" unicode="&#xa4;" 
d="M100 893l-84 90l156 162l84 -88q113 76 248 76q139 0 264 -76l88 88l148 -164l-84 -88q71 -107 71 -268q0 -77 -19.5 -143t-56.5 -113l89 -93l-148 -159l-88 88q-121 -74 -260 -80q-141 7 -252 80l-88 -88l-152 159l84 93q-68 107 -75 256q3 83 26.5 159.5t48.5 108.5z
M512 889q-69 0 -123 -35t-84.5 -91t-32.5 -120q0 -106 65 -188.5t175 -85.5q73 0 129 41t83.5 101.5t27.5 117.5q-2 68 -31 127.5t-82.5 96t-126.5 36.5z" />
    <glyph glyph-name="guilsinglleft" unicode="&#x2039;" horiz-adv-x="567" 
d="M440 915v-227l-192 -156l192 -172v-231l-319 291v209z" />
    <glyph glyph-name="guilsinglright" unicode="&#x203a;" horiz-adv-x="567" 
d="M129 915l324 -286v-213l-324 -287v231l190 164l-190 164v227z" />
    <glyph glyph-name="fi" unicode="&#xf001;" 
d="M125 1155v141q0 141 70.5 190.5t191.5 49.5h117v-215q-49 14 -64 14q-53 0 -53 -39v-141h117v-194h-117v-961h-262v961h-105v194h105zM647 1155h268v-1155h-268v1155zM647 1536h268v-240h-268v240z" />
    <glyph glyph-name="fl" unicode="&#xf002;" 
d="M125 1155v125q0 88 21.5 143t80 84t164.5 29h113v-215q-41 14 -68 14q-45 0 -45 -51v-129h113v-194h-113v-961h-266v961h-105v194h105zM641 1536h266v-1536h-266v1536z" />
    <glyph glyph-name="daggerdbl" unicode="&#x2021;" 
d="M385 1092v481h262v-481h309v-232h-309v-473h309v-231h-309v-488h-262v488h-313v231h313v473h-313v232h313z" />
    <glyph glyph-name="periodcentered" unicode="&#x2219;" horiz-adv-x="860" 
d="M432 1149q102 0 191 -52t140.5 -140.5t51.5 -192.5t-51.5 -191.5t-140.5 -139.5t-191 -52q-104 0 -194 52t-142.5 139t-52.5 192t52.5 193t142.5 140t194 52z" />
    <glyph glyph-name="quotedblbase" unicode="&#x201e;" 
d="M600 268h248v-264q0 -104 -35.5 -163t-85 -82t-127.5 -44v97q67 20 97 55t30 137h-127v264zM197 268h247v-264q0 -111 -46 -185.5t-201 -99.5v93q56 14 91.5 49t35.5 143h-127v264z" />
    <glyph glyph-name="perthousand" unicode="&#x2030;" horiz-adv-x="2275" 
d="M360 1360q-73 0 -96.5 -43t-27.5 -125q3 -19 6 -111q3 -93 28.5 -133.5t102.5 -40.5q47 1 68.5 32t26.5 79.5t7 134.5q0 124 -25 164t-90 43zM356 1507q133 0 202 -44.5t91.5 -127.5t22.5 -223q-2 -111 -21.5 -184.5t-91.5 -120.5t-219 -47q-97 0 -158.5 30t-90.5 79
t-38.5 108t-9.5 139q0 131 21.5 214t90.5 130t201 47zM1188 600q-74 0 -97.5 -44t-25.5 -124q2 -24 2 -67q0 -59 5.5 -103.5t18 -69.5t35 -36.5t54.5 -12.5q8 4 16 4q44 3 67 21.5t30.5 48.5t9.5 79q1 48 2 95q0 125 -26 165.5t-91 43.5zM1180 748q102 0 166.5 -26.5
t96.5 -74.5t44 -117.5t12 -177.5q-2 -115 -21.5 -188t-90.5 -120.5t-220 -47.5q-125 1 -191 52t-86 128t-22 180q0 131 22 214t90.5 130.5t199.5 47.5zM1927 604q-72 0 -95.5 -43t-27.5 -125q4 -24 4 -67q0 -84 10.5 -130.5t34.5 -65.5t68 -21q6 4 14 4q51 0 73.5 30t28 78
t7.5 131q0 128 -26 167t-91 42zM1921 756q134 0 204 -45t93 -130t23 -225q-4 -117 -22.5 -186.5t-90 -117.5t-219.5 -48q-98 1 -160 32t-90.5 80t-38.5 108.5t-12 140.5q0 132 22.5 214t91 129.5t199.5 47.5zM1049 1532h151l-696 -1569h-148z" />
    <glyph glyph-name="Acircumflex" unicode="&#xc2;" horiz-adv-x="1141" 
d="M385 1540h391l344 -1540h-309l-72 387h-336l-79 -387h-304zM692 616l-92 517l-25 235h-4l-22 -235l-105 -517h248zM416 1956h260l235 -299h-235l-127 168l-133 -168h-232z" />
    <glyph glyph-name="Ecircumflex" unicode="&#xca;" 
d="M131 1540h809v-227h-520v-389h477v-224h-477v-477h520v-223h-809v1540zM381 1960h260l236 -299h-236l-129 168l-131 -168h-234z" />
    <glyph glyph-name="Aacute" unicode="&#xc1;" horiz-adv-x="1141" 
d="M385 1540h391l344 -1540h-309l-72 387h-336l-79 -387h-304zM692 616l-92 517l-25 235h-4l-22 -235l-105 -517h248zM592 1968h315l-303 -301h-209z" />
    <glyph glyph-name="Edieresis" unicode="&#xcb;" 
d="M131 1540h809v-227h-520v-389h477v-224h-477v-477h520v-223h-809v1540zM580 1935h264v-235h-264v235zM184 1935h260v-235h-260v235z" />
    <glyph glyph-name="Egrave" unicode="&#xc8;" 
d="M131 1540h809v-227h-520v-389h477v-224h-477v-477h520v-223h-809v1540zM176 1968h316l192 -301h-209z" />
    <glyph glyph-name="Iacute" unicode="&#xcd;" horiz-adv-x="567" 
d="M139 1540h289v-1540h-289v1540zM307 1972h318l-306 -301h-206z" />
    <glyph glyph-name="Icircumflex" unicode="&#xce;" horiz-adv-x="567" 
d="M139 1540h289v-1540h-289v1540zM156 1960h260l235 -299h-235l-127 168l-133 -168h-232z" />
    <glyph glyph-name="Idieresis" unicode="&#xcf;" horiz-adv-x="567" 
d="M139 1540h289v-1540h-289v1540zM352 1935h264v-235h-264v235zM-43 1935h258v-235h-258v235z" />
    <glyph glyph-name="Igrave" unicode="&#xcc;" horiz-adv-x="567" 
d="M139 1540h289v-1540h-289v1540zM-55 1972h315l193 -301h-209z" />
    <glyph glyph-name="Oacute" unicode="&#xd3;" horiz-adv-x="1251" 
d="M1133 629q-2 -160 -16 -268t-63.5 -201t-150.5 -147t-270 -54q-177 0 -282.5 56.5t-152.5 149t-57.5 184.5t-15.5 251v33v194q1 0 1 3q0 7 -5 30q6 161 27.5 318.5t82.5 240.5q64 79 132 117t127.5 46.5t142.5 8.5q221 0 332 -109t139.5 -259t28.5 -346v-248zM420 1049
v-557q0 -295 213 -295q90 0 146.5 67.5t56.5 227.5v532q0 55 -12.5 125t-58 131.5t-132.5 62.5q-107 0 -160 -76t-53 -218zM651 1972h318l-305 -301h-207z" />
    <glyph glyph-name="Ocircumflex" unicode="&#xd4;" horiz-adv-x="1251" 
d="M1133 629q-2 -160 -16 -268t-63.5 -201t-150.5 -147t-270 -54q-177 0 -282.5 56.5t-152.5 149t-57.5 184.5t-15.5 251v33v194q1 0 1 3q0 7 -5 30q6 161 27.5 318.5t82.5 240.5q64 79 132 117t127.5 46.5t142.5 8.5q221 0 332 -109t139.5 -259t28.5 -346v-248zM420 1049
v-557q0 -295 213 -295q90 0 146.5 67.5t56.5 227.5v532q0 55 -12.5 125t-58 131.5t-132.5 62.5q-107 0 -160 -76t-53 -218zM496 1960h260l235 -299h-235l-127 168l-133 -168h-232z" />
    <glyph glyph-name="Ograve" unicode="&#xd2;" horiz-adv-x="1251" 
d="M1133 629q-2 -160 -16 -268t-63.5 -201t-150.5 -147t-270 -54q-177 0 -282.5 56.5t-152.5 149t-57.5 184.5t-15.5 251v33v194q1 0 1 3q0 7 -5 30q6 161 27.5 318.5t82.5 240.5q64 79 132 117t127.5 46.5t142.5 8.5q221 0 332 -109t139.5 -259t28.5 -346v-248zM420 1049
v-557q0 -295 213 -295q90 0 146.5 67.5t56.5 227.5v532q0 55 -12.5 125t-58 131.5t-132.5 62.5q-107 0 -160 -76t-53 -218zM289 1972h315l193 -301h-209z" />
    <glyph glyph-name="Uacute" unicode="&#xda;" horiz-adv-x="1251" 
d="M139 1540h285v-1083q0 -108 29.5 -166.5t75.5 -78t104 -19.5q89 0 141.5 54.5t52.5 213.5v1079h289v-1104q0 -248 -114.5 -362.5t-372.5 -114.5q-123 0 -213.5 24.5t-152.5 79.5t-93 147t-31 226v1104zM647 1968h318l-306 -301h-206z" />
    <glyph glyph-name="Ucircumflex" unicode="&#xdb;" horiz-adv-x="1251" 
d="M139 1540h285v-1083q0 -108 29.5 -166.5t75.5 -78t104 -19.5q89 0 141.5 54.5t52.5 213.5v1079h289v-1104q0 -248 -114.5 -362.5t-372.5 -114.5q-123 0 -213.5 24.5t-152.5 79.5t-93 147t-31 226v1104zM496 1960h260l235 -299h-235l-127 168l-133 -168h-232z" />
    <glyph glyph-name="Ugrave" unicode="&#xd9;" horiz-adv-x="1251" 
d="M139 1540h285v-1083q0 -108 29.5 -166.5t75.5 -78t104 -19.5q89 0 141.5 54.5t52.5 213.5v1079h289v-1104q0 -248 -114.5 -362.5t-372.5 -114.5q-123 0 -213.5 24.5t-152.5 79.5t-93 147t-31 226v1104zM289 1972h315l193 -301h-209z" />
    <glyph glyph-name="_extra03" horiz-adv-x="567" 
d="M152 1155h264v-1155h-264v1155z" />
    <glyph glyph-name="circumflex" unicode="&#x2c6;" horiz-adv-x="680" 
d="M209 1620h260l236 -299h-236l-129 168l-131 -168h-234z" />
    <glyph glyph-name="tilde" unicode="&#x2dc;" horiz-adv-x="680" 
d="M-33 1305q0 65 33.5 121.5t90.5 91t122 34.5q38 0 69 -9.5t94.5 -33t102.5 -28.5q84 0 105 88h133q-22 -122 -79.5 -182.5t-137.5 -65.5q-63 0 -161 34t-146 34q-39 0 -56.5 -19t-40.5 -65h-129z" />
    <glyph glyph-name="breve" unicode="&#x2d8;" horiz-adv-x="680" 
d="M131 1599q3 -66 56.5 -104.5t144.5 -38.5q104 0 156.5 32.5t64.5 110.5h135q-20 -149 -113 -221.5t-235 -77.5q-82 0 -160.5 28.5t-131 96t-52.5 174.5h135z" />
    <glyph glyph-name="ring" unicode="&#x2da;" horiz-adv-x="680" 
d="M340 1733q91 0 155 -64t64 -158q0 -90 -64.5 -152.5t-154.5 -62.5t-154.5 63.5t-64.5 151.5q0 92 64 157t155 65zM340 1632q-47 0 -82 -34t-35 -82q0 -51 35 -85t82 -34q50 0 85.5 33.5t35.5 85.5q0 49 -35.5 82.5t-85.5 33.5z" />
    <glyph glyph-name="cedilla" unicode="&#xb8;" horiz-adv-x="680" 
d="M395 0l-84 -129q13 4 39 7t37 5q51 0 91 -23t60.5 -61t20.5 -80q0 -86 -80.5 -137t-175.5 -51q-97 0 -223 53l41 88q31 -12 85.5 -24.5t92.5 -12.5q38 4 62 29t26 51q0 33 -25 55t-69 25q-55 -9 -80 -18l-45 39l121 184h106z" />
    <glyph glyph-name="nonbreakingspace" unicode="&#xa0;" horiz-adv-x="1536" 
 />
    <glyph glyph-name="yacute" unicode="&#xfd;" horiz-adv-x="567" 
d="M152 1155h264v-1155h-264v1155z" />
    <glyph glyph-name="eth" unicode="&#xf0;" 
d="M889 1155v-1114q0 -90 -15 -159.5t-51 -124.5t-96 -89q-41 -23 -116 -39t-154 -16q-138 0 -234 60.5t-102 195.5h266q0 -66 129 -66q117 7 117 168v158q-29 -77 -97 -117.5t-151 -40.5q-81 0 -149 41q-127 79 -127 373v332q0 181 30 281.5t83.5 139.5t137.5 46h43
q79 0 134.5 -35t83.5 -121v127h268zM377 727v-346q0 -115 37.5 -162t81.5 -47q62 6 93.5 53.5t31.5 151.5v391q0 107 -34 160t-91 53q-50 0 -75 -20t-34.5 -72t-9.5 -162zM328 1581q3 -66 56.5 -104.5t143.5 -38.5q104 0 157 32.5t65 110.5h135q-20 -150 -113 -223t-235 -76
q-83 0 -160.5 28.5t-130.5 96t-53 174.5h135z" />
    <glyph glyph-name="thorn" unicode="&#xfe;" horiz-adv-x="907" 
d="M477 -29l-59 -96q33 6 63 6q89 0 137 -42.5t48 -106.5q0 -50 -28 -95.5t-85.5 -73.5t-138.5 -28q-106 0 -232 53l35 84q83 -32 154 -32q53 0 83.5 24t30.5 55t-23.5 50t-68.5 22q-17 -2 -28.5 -4t-25 -5t-30.5 -9l-39 43l99 153q-87 11 -158 53t-112.5 120t-41.5 186
q0 34 2 53h269q-4 -42 -4 -57q0 -156 120 -164q115 14 115 112q0 72 -43 109q-16 14 -130 87.5t-194 146.5t-104 149q-14 42 -25 135q3 104 59.5 167.5t144.5 90.5t190 27q184 0 281.5 -89t97.5 -290h-273q0 99 -29.5 137.5t-89.5 38.5q-47 0 -80 -23t-36 -69q7 -60 41 -84
q55 -47 160 -115.5t162.5 -113t98.5 -111t41 -158.5q0 -51 -12 -110q-13 -67 -54 -116.5t-113.5 -77.5t-174.5 -32z" />
    <glyph glyph-name="Eth" unicode="&#xd0;" horiz-adv-x="1251" 
d="M1108 1057h-289q0 156 -44.5 219t-158.5 63q-125 0 -166.5 -87t-41.5 -269v-403q0 -126 13 -206.5t59 -128.5t136 -48q211 0 211 383v20h-198v223h475v-823h-211v180q-37 -105 -119.5 -163t-202.5 -58q-30 0 -96 8q-104 21 -170 62.5t-108.5 119t-63 204.5t-20.5 306v164
q2 248 29.5 402.5t134 253t327.5 98.5q175 0 280 -50.5t152.5 -130.5t59.5 -160.5t12 -178.5zM408 1954q3 -67 56.5 -105.5t143.5 -38.5q104 0 156.5 33t64.5 111h136q-20 -150 -113 -223t-236 -76q-82 0 -160.5 28.5t-131 95.5t-52.5 175h136z" />
    <glyph glyph-name="Thorn" unicode="&#xde;" horiz-adv-x="1141" 
d="M559 -33q-203 3 -314 114t-114 376q0 17 -13.5 44t-13.5 44h287q0 -17 -2 -43t-4 -49q0 -128 52 -192.5t134 -67.5q53 6 84 16q34 8 61 56.5t27 107.5q0 132 -139 227q-111 72 -189.5 124t-152 121.5t-116 154t-42.5 196.5q19 359 408 377q154 0 263.5 -45.5t166.5 -146
t57 -261.5v-49h-272q0 150 -44 211t-128 61q-64 0 -110.5 -41t-49.5 -106q3 -48 30.5 -95.5t74.5 -80.5q29 -19 155.5 -100.5t197.5 -139t123 -131.5t60 -157q4 -58 4 -84q0 -135 -50.5 -229.5t-135.5 -145t-184 -62.5l-60 -96q34 6 64 6q58 0 100.5 -20t63 -54.5
t20.5 -74.5q0 -50 -28 -95.5t-85.5 -73.5t-138.5 -28q-105 0 -231 53l35 84q81 -32 153 -32q54 0 84.5 24t30.5 55q0 30 -23.5 49.5t-68.5 22.5q-66 -12 -84 -18l-39 43z" />
    <glyph glyph-name="Yacute" unicode="&#xdd;" horiz-adv-x="567" 
d="M139 1540h289v-1540h-289v1540zM145 1937h265v-235h-265v235z" />
    </font>
</defs>
</svg>
